SplineFontDB: 3.2
FontName: Primihi-Regular
FullName: Primihi Regular
FamilyName: Primihi
Weight: Regular
Copyright: This font has been released into the public domain by its author, Barry Schwartz. This applies worldwide.\n\nIn some countries this may not be legally possible; if so:\n\nBarry Schwartz grants anyone the right to use this work for any purpose, without any conditions, unless such conditions are required by law\n\nModified into Primihi for Lojban/Zbalermorna in 2020 by Jack Humbert.
Version: 2008.02.06
ItalicAngle: 0
UnderlinePosition: -251
UnderlineWidth: 43
Ascent: 750
Descent: 250
InvalidEm: 0
sfntRevision: 0x07d8051f
LayerCount: 2
Layer: 0 0 "Back" 1
Layer: 1 0 "Fore" 0
XUID: [1021 647 -312734098 17743]
StyleMap: 0x0040
FSType: 0
OS2Version: 4
OS2_WeightWidthSlopeOnly: 0
OS2_UseTypoMetrics: 0
CreationTime: 1438840825
ModificationTime: 1590423680
PfmFamily: 33
TTFWeight: 400
TTFWidth: 5
LineGap: 0
VLineGap: 0
Panose: 2 15 5 2 2 2 4 3 2 3
OS2TypoAscent: 750
OS2TypoAOffset: 0
OS2TypoDescent: -250
OS2TypoDOffset: 0
OS2TypoLinegap: 198
OS2WinAscent: 816
OS2WinAOffset: 0
OS2WinDescent: 313
OS2WinDOffset: 0
HheadAscent: 750
HheadAOffset: 0
HheadDescent: -250
HheadDOffset: 0
OS2SubXSize: 692
OS2SubYSize: 642
OS2SubXOff: 0
OS2SubYOff: 138
OS2SupXSize: 692
OS2SupYSize: 642
OS2SupXOff: 0
OS2SupYOff: 471
OS2StrikeYSize: 44
OS2StrikeYPos: 272
OS2CapHeight: 750
OS2XHeight: 500
OS2Vendor: 'JH  '
OS2CodePages: 2002019f.00000000
OS2UnicodeRanges: 80000001.10000002.00000000.00000000
Lookup: 4 0 1 "zlmFF" { "zlmFF subtable"  } ['liga' ('latn' <'dflt' > 'DFLT' <'dflt' > ) ]
Lookup: 4 0 1 "zlmSFF" { "zlmSFF subtable"  } ['liga' ('latn' <'dflt' > 'DFLT' <'dflt' > ) ]
Lookup: 4 0 1 "zlmSF" { "zlmSF subtable"  } ['liga' ('latn' <'dflt' > 'DFLT' <'dflt' > ) ]

StartChar: exclam
Encoding: 1 33 1
Width: 325
Flags: W
HStem: -16 101<152.5 179.5 152.5 180.5>
VStem: 108 96<610.5 618> 114 103<20.5 48.5 20.5 50>
LayerCount: 2
Fore
SplineSet
194 674 m 0xc0
 203 674 204 667 204 648 c 2
 204 625 l 2
 204 411 166 232 159 211 c 0
 157 205 152 195 142 195 c 0
 129 195 127 210 127 225 c 2
 127 242 l 1
 121 464 108 610 108 611 c 0
 108 625 113 629 121 634 c 0
 189 674 188 674 194 674 c 0xc0
166 85 m 0
 193 85 217 63 217 34 c 0
 217 7 195 -16 166 -16 c 0
 139 -16 114 5 114 35 c 0xa0
 114 65 139 85 166 85 c 0
EndSplineSet
EndChar

StartChar: question
Encoding: 13 63 2
Width: 380
Flags: W
HStem: -17 118<143.5 175 143.5 176> 577 103 651 38<146.5 189.5>
VStem: 99 120<26.5 58.5 26.5 60.5> 119 52<245.5 312.5> 252 85<489.5 571.5 479.5 575.5>
LayerCount: 2
Fore
SplineSet
159 101 m 0x94
 191 101 219 75 219 42 c 0
 219 11 193 -17 159 -17 c 0
 128 -17 99 8 99 43 c 0
 99 78 128 101 159 101 c 0x94
160 689 m 0xac
 288 689 337 601 337 542 c 0
 337 417 171 390 171 250 c 0
 171 241 172 235 172 228 c 0
 172 201 156 192 146 192 c 0
 135 192 119 200 119 247 c 0
 119 378 252 432 252 547 c 0
 252 604 214 651 165 651 c 0xac
 101 651 107 577 57 577 c 0
 33 577 15 597 15 621 c 0
 15 633 18 667 79 680 c 0xcc
 105 686 133 689 160 689 c 0xac
EndSplineSet
EndChar

StartChar: semicolon
Encoding: 10 59 3
Width: 227
Flags: W
HStem: 293 118<108.5 140 108.5 141>
VStem: 65 119<336.5 368.5 336.5 370> 161 51<-44 -43 -43 -43>
LayerCount: 2
Fore
SplineSet
124 100 m 0xa0
 171 100 212 49 212 -15 c 0
 212 -104 132 -147 110 -147 c 0
 101 -147 92 -141 92 -130 c 0
 92 -113 112 -112 135 -91 c 0
 157 -70 161 -53 161 -44 c 2
 161 -43 l 2
 160 7 96 -18 71 19 c 0
 65 26 63 35 63 45 c 0
 63 77 93 100 124 100 c 0xa0
124 411 m 0
 156 411 184 385 184 352 c 0
 184 321 158 293 124 293 c 0
 93 293 65 318 65 353 c 0xc0
 65 387 93 411 124 411 c 0
EndSplineSet
EndChar

StartChar: colon
Encoding: 9 58 4
Width: 228
Flags: W
HStem: -17 118<108.5 140 108.5 141> 293 118<108.5 140 108.5 141>
VStem: 65 119<26.5 58.5 26.5 60.5 336.5 368.5>
LayerCount: 2
Fore
SplineSet
124 411 m 0
 156 411 184 385 184 352 c 0
 184 321 158 293 124 293 c 0
 93 293 65 318 65 353 c 0
 65 387 93 411 124 411 c 0
124 101 m 0
 156 101 184 75 184 42 c 0
 184 11 158 -17 124 -17 c 0
 93 -17 65 8 65 43 c 0
 65 78 93 101 124 101 c 0
EndSplineSet
EndChar

StartChar: guillemotleft
Encoding: 18 171 5
Width: 365
Flags: W
HStem: 52 282<182.5 188 323 329>
VStem: 22 80<191 195.5> 163 79<191 195.5>
LayerCount: 2
Fore
SplineSet
185 334 m 0
 193 334 202 322 202 315 c 0
 202 309 202 310 105 201 c 0
 104 199 102 197 102 194 c 0
 102 188 105 186 197 79 c 0
 199 77 201 74 201 71 c 0
 201 63 192 52 184 52 c 0
 179 52 180 52 28 184 c 0
 25 186 22 189 22 193 c 0
 22 198 26 201 29 204 c 0
 181 334 180 334 185 334 c 0
326 334 m 0
 334 334 343 322 343 315 c 0
 343 309 343 310 246 201 c 0
 244 199 242 197 242 194 c 0
 242 188 246 186 337 79 c 0
 340 77 341 74 341 71 c 0
 341 63 333 52 325 52 c 0
 319 52 321 52 169 184 c 0
 166 186 163 189 163 193 c 0
 163 198 166 201 170 204 c 0
 322 334 320 334 326 334 c 0
EndSplineSet
EndChar

StartChar: guillemotright
Encoding: 19 187 6
Width: 365
Flags: W
HStem: 52 282<36 42.5 36 43 177 183>
VStem: 123 79<192.5 194.5 191.5 195> 263 79<191.5 194>
LayerCount: 2
Fore
SplineSet
180 334 m 0
 186 334 183 334 336 204 c 0
 340 201 342 198 342 193 c 0
 342 189 340 186 336 184 c 0
 185 52 186 52 180 52 c 0
 174 52 164 61 164 70 c 0
 164 76 165 75 260 185 c 0
 262 188 263 190 263 193 c 0
 263 195 262 198 260 201 c 0
 163 310 162 309 162 315 c 0
 162 324 172 334 180 334 c 0
40 334 m 0
 45 334 49 329 194 204 c 0
 200 200 202 196 202 193 c 0
 202 190 200 187 196 184 c 0
 45 52 46 52 40 52 c 0
 32 52 24 61 24 70 c 0
 24 76 26 78 118 185 c 0
 121 188 123 191 123 194 c 0
 123 196 122 198 120 201 c 2
 26 305 l 2
 24 308 22 311 22 315 c 0
 22 324 32 334 40 334 c 0
EndSplineSet
EndChar

StartChar: parenleft
Encoding: 7 40 7
Width: 363
Flags: W
HStem: 698 20G<291 303>
VStem: 45 76<182 342.5>
LayerCount: 2
Fore
SplineSet
316 -174 m 0
 316 -186 306 -194 295 -194 c 0
 286 -194 278 -190 271 -184 c 0
 137 -79 45 84 45 262 c 0
 45 423 125 590 267 704 c 0
 275 710 285 718 297 718 c 0
 309 718 318 710 318 699 c 0
 318 687 309 679 304 675 c 0
 203 584 121 442 121 263 c 0
 121 101 188 -45 300 -147 c 0
 305 -152 316 -161 316 -174 c 0
EndSplineSet
EndChar

StartChar: parenright
Encoding: 8 41 8
Width: 363
Flags: W
HStem: 702 20G<63.5 73.5>
VStem: 242 76<184.5 345.5>
LayerCount: 2
Fore
SplineSet
48 701 m 0
 48 714 58 722 69 722 c 0
 78 722 85 717 93 711 c 0
 227 606 318 443 318 265 c 0
 318 104 238 -63 96 -177 c 0
 88 -183 78 -191 66 -191 c 0
 55 -191 45 -183 45 -171 c 0
 45 -160 55 -152 60 -147 c 0
 161 -56 242 85 242 264 c 0
 242 427 176 572 64 675 c 0
 58 680 48 688 48 701 c 0
EndSplineSet
EndChar

StartChar: bracketleft
Encoding: 14 91 9
Width: 378
Flags: W
HStem: -185 25 223 77<46 58.5 46 59> 679 29
VStem: 23 102<255 278.5> 80 45<-156.5 -155 -155 226 226 228> 192 42<-131 -127 -137 649>
LayerCount: 2
Fore
SplineSet
125 -155 m 2xec
 125 -158 126 -160 129 -160 c 0
 134 -160 148 -143 188 -137 c 0
 192 -136 192 -134 192 -131 c 2
 192 649 l 2
 192 662 170 653 132 677 c 0
 131 678 130 679 128 679 c 0
 126 679 125 677 125 674 c 2
 125 -155 l 2xec
104 744 m 0
 127 744 145 708 222 708 c 0
 288 708 338 737 343 737 c 0
 350 737 355 726 355 721 c 0
 355 709 309 654 239 653 c 0
 234 653 233 651 233 646 c 2
 234 -127 l 2
 234 -147 253 -127 307 -159 c 0
 332 -175 354 -197 354 -207 c 0
 354 -213 349 -220 342 -220 c 0
 333 -220 287 -185 211 -185 c 0
 142 -185 107 -210 96 -210 c 0
 83 -210 80 -200 80 -188 c 2
 80 226 l 2xec
 80 230 79 233 76 233 c 0
 72 233 66 223 52 223 c 0
 29 223 23 246 23 264 c 0xf4
 23 293 40 300 52 300 c 0
 65 300 71 293 75 293 c 0
 78 293 79 296 79 300 c 2
 79 710 l 2
 79 723 81 744 104 744 c 0
EndSplineSet
EndChar

StartChar: bracketright
Encoding: 15 93 10
Width: 378
Flags: W
HStem: -185 25 223 77<319.5 332 299 337.5> 679 29
VStem: 144 42<-132.5 -131 -131 -127> 253 46<298 300 300 674 674 675.5> 253 102<255 278.5 255 674>
LayerCount: 2
Fore
SplineSet
253 -155 m 2xf8
 253 674 l 2
 253 677 252 679 250 679 c 0
 248 679 247 678 246 677 c 0
 208 653 186 662 186 649 c 2
 186 -131 l 2
 186 -134 186 -136 190 -137 c 0
 230 -143 244 -160 249 -160 c 0
 252 -160 253 -158 253 -155 c 2xf8
274 744 m 0
 297 744 299 723 299 710 c 2
 299 300 l 2xf8
 299 296 300 293 303 293 c 0
 307 293 313 300 326 300 c 0
 338 300 355 293 355 264 c 0xf4
 355 246 349 223 326 223 c 0
 312 223 306 233 302 233 c 0
 299 233 298 230 298 226 c 2
 298 -188 l 2
 298 -200 295 -210 282 -210 c 0
 271 -210 236 -185 167 -185 c 0
 91 -185 45 -220 36 -220 c 0
 29 -220 24 -213 24 -207 c 0
 24 -197 46 -175 71 -159 c 0
 125 -127 144 -147 144 -127 c 2
 145 646 l 2
 145 651 144 653 139 653 c 0
 69 654 23 709 23 721 c 0
 23 726 28 737 35 737 c 0
 40 737 90 708 156 708 c 0
 233 708 251 744 274 744 c 0
EndSplineSet
EndChar

StartChar: braceleft
Encoding: 16 123 11
Width: 251
Flags: W
HStem: 700 20G<162.5 189>
VStem: 45 77<255.5 258.5 249 259.5> 73 64<-112 -38.5 -116 -18.5> 105 60<116 163 87.5 188.5>
LayerCount: 2
Fore
SplineSet
45 256 m 0xc0
 45 263 104 271 104 359 c 0
 104 436 77 505 77 586 c 0
 77 691 141 720 184 720 c 0
 194 720 208 719 208 715 c 0
 208 711 166 701 148 650 c 0
 143 635 141 620 141 604 c 0
 141 546 168 488 168 411 c 0
 168 315 122 263 122 254 c 0xc0
 122 244 165 206 165 120 c 0x90
 165 55 137 -7 137 -70 c 0
 137 -162 201 -192 201 -195 c 0
 201 -197 198 -198 185 -198 c 0
 140 -198 73 -167 73 -57 c 0xa0
 73 20 105 84 105 148 c 0x90
 105 229 49 251 46 254 c 0
 45 255 45 255 45 256 c 0xc0
EndSplineSet
EndChar

StartChar: braceright
Encoding: 17 125 12
Width: 251
Flags: W
HStem: 700 20G<65.5 91.5>
VStem: 89 60<116 163.5> 117 64<-112 -38.5> 132 77<249 257.5>
LayerCount: 2
Fore
SplineSet
177 586 m 0x90
 177 505 150 436 150 359 c 0
 150 274 204 262 208 259 c 0
 209 258 209 258 209 257 c 0x90
 209 255 208 253 205 252 c 0
 172 234 149 200 149 148 c 0xc0
 149 84 181 20 181 -57 c 0
 181 -167 114 -198 69 -198 c 0
 56 -198 53 -197 53 -195 c 0
 53 -192 117 -162 117 -70 c 0xa0
 117 -7 89 55 89 120 c 0xc0
 89 207 132 244 132 254 c 0
 132 258 129 262 128 264 c 0
 96 314 86 367 86 411 c 0
 86 488 113 546 113 604 c 0
 113 693 46 710 46 715 c 0
 46 719 61 720 70 720 c 0
 113 720 177 691 177 586 c 0x90
EndSplineSet
EndChar

StartChar: quotedbl
Encoding: 2 34 13
Width: 389
Flags: W
HStem: 457 258<52 161.5 134.5 226.5>
VStem: 38 314<479 687 480 687>
LayerCount: 2
Fore
SplineSet
150 715 m 0
 173 715 187 697 187 677 c 0
 187 661 179 649 173 638 c 0
 141 581 79 471 76 467 c 0
 71 461 65 457 58 457 c 0
 46 457 38 468 38 479 c 2
 38 480 l 2
 38 487 39 488 97 659 c 0
 106 683 119 715 150 715 c 0
316 715 m 0
 338 715 352 697 352 677 c 0
 352 661 345 649 339 638 c 0
 306 581 245 471 241 467 c 0
 236 461 230 457 223 457 c 0
 211 457 203 468 203 479 c 2
 203 480 l 2
 203 487 204 488 263 659 c 0
 271 683 284 715 316 715 c 0
EndSplineSet
EndChar

StartChar: ampersand
Encoding: 6 38 14
Width: 828
Flags: W
HStem: -23 77<359 377 377 403> 154 35<414.5 438.5 414.5 459.5> 360 32<244.5 245 245 246> 384 62<134 152.5> 440 33<235 275.5 221 278> 645 56<187 230> 677 38<668.5 696.5 638 697>
VStem: 30 79<225.5 286 225.5 297.5> 58 44<508.5 565 508.5 574> 100 76<421 421.5 415.5 422 415.5 427.5> 303 35<405.5 420> 338 36<235 275.5 235 281.5> 468 53<210.5 211.5> 573 70<628 671.5> 586 33<192.5 230 230 232 163 260.5> 768 41<539.5 597.5 494 601.5>
LayerCount: 2
Fore
SplineSet
100 422 m 2xd279
 100 433 58 463 58 529 c 0
 58 619 140 701 233 701 c 0
 269 701 340 688 340 640 c 0
 340 614 317 595 295 595 c 0
 254 595 252 645 208 645 c 0
 166 645 102 601 102 529 c 0
 102 488 127 446 141 446 c 0xd4b9
 149 446 191 473 251 473 c 0
 300 473 338 451 338 417 c 0
 338 383 297 360 246 360 c 2
 245 360 l 2xe8b9
 190 360 156 384 149 384 c 0
 141 384 137 373 136 372 c 0
 118 340 109 304 109 268 c 0
 109 183 167 63 359 54 c 1
 377 54 l 2
 539 54 586 158 586 227 c 0xd13b
 586 294 545 347 482 347 c 0
 423 347 374 300 374 251 c 0
 374 219 397 189 432 189 c 0
 445 189 468 196 468 206 c 0
 468 217 446 210 431 230 c 0
 427 236 424 244 424 252 c 0
 424 271 440 288 463 288 c 0
 492 288 521 264 521 230 c 0
 521 191 484 154 435 154 c 0
 381 154 338 199 338 255 c 0
 338 308 375 358 435 388 c 0
 519 430 613 421 682 451 c 0
 724 470 768 509 768 570 c 0
 768 633 721 677 673 677 c 0
 664 677 643 675 643 668 c 0
 643 663 659 656 659 633 c 0
 659 611 642 592 618 592 c 0
 592 592 573 615 573 641 c 0xd23d
 573 684 615 715 661 715 c 0
 732 715 809 647 809 548 c 0
 809 440 712 354 600 352 c 0
 592 352 585 352 585 344 c 0
 585 337 619 301 619 232 c 2
 619 230 l 2
 619 96 485 -23 321 -23 c 0
 154 -23 30 102 30 245 c 0xd33b
 30 350 94 407 98 414 c 0
 99 416 100 419 100 421 c 2
 100 422 l 2xd279
261 392 m 0xe879
 281 392 303 396 303 415 c 0
 303 425 296 440 260 440 c 0
 210 440 176 426 176 417 c 0
 176 414 178 412 179 411 c 0
 203 393 228 392 261 392 c 0xe879
EndSplineSet
EndChar

StartChar: dollar
Encoding: 4 36 15
Width: 482
Flags: W
HStem: 1 41<178 181.5> 599 39<232 233 233 234 231.5 235>
VStem: 16 91<136 148.5> 41 58<468.5 524.5> 186 41<225.5 288.5> 332 70<133 199 133 215>
LayerCount: 2
Fore
SplineSet
376 531 m 0xdc
 376 506 360 487 335 487 c 0
 272 487 297 586 235 599 c 1
 233 599 l 2
 231 599 228 598 228 594 c 2
 228 420 l 2
 228 414 227 407 227 404 c 0
 227 384 239 387 275 372 c 0
 361 335 383 283 393 250 c 0
 399 230 402 209 402 189 c 0
 402 77 319 17 235 3 c 0
 227 1 227 -3 227 -9 c 2
 227 -78 l 2
 227 -88 223 -97 207 -97 c 0
 192 -97 187 -89 187 -78 c 2
 187 -9 l 2
 187 -2 185 1 178 1 c 0
 79 4 16 80 16 133 c 0
 16 164 37 188 65 188 c 0
 88 188 107 171 107 142 c 0xec
 107 130 104 120 104 107 c 0
 104 55 158 42 181 42 c 0
 184 42 186 43 186 46 c 2
 186 306 l 2
 186 316 183 318 177 319 c 0
 84 339 41 419 41 484 c 0
 41 565 100 630 177 636 c 0
 183 637 186 638 186 644 c 2
 186 665 l 2
 186 672 187 685 206 685 c 2
 207 685 l 2
 224 685 228 675 228 665 c 2
 228 646 l 1
 228 644 l 2
 228 641 229 638 234 638 c 0
 322 628 376 573 376 531 c 0xdc
183 599 m 0
 166 599 99 571 99 504 c 0xdc
 99 433 177 409 181 409 c 0
 185 409 186 411 186 414 c 2
 186 489 l 1
 186 572 l 2
 186 597 186 599 183 599 c 0
234 295 m 0
 228 295 227 291 227 286 c 0
 227 165 226 105 226 75 c 0
 226 44 227 44 230 44 c 2
 232 44 l 2
 247 44 332 82 332 171 c 0
 332 259 245 295 234 295 c 0
EndSplineSet
EndChar

StartChar: numbersign
Encoding: 3 35 16
Width: 552
Flags: W
HStem: 157 45<63 157 70 144 221.5 242 242 311 379 480> 353 45<66.5 180 72 173 242 339 405 479 479 482>
VStem: 128 44 180 26 218 44 295 42 346 26 385 42
LayerCount: 2
Fore
SplineSet
346 348 m 0
 346 351 345 353 339 353 c 2
 234 353 l 2
 227 353 226 350 225 346 c 0
 219 300 206 212 206 207 c 0
 206 203 209 202 214 202 c 2
 316 202 l 2
 320 202 326 202 327 210 c 0
 341 311 346 339 346 348 c 0
404 615 m 1
 411 615 l 2
 421 615 427 612 427 604 c 0
 427 594 400 413 400 403 c 0
 400 400 401 398 405 398 c 2
 479 398 l 2
 494 398 498 390 498 372 c 0
 498 356 492 353 482 353 c 2
 396 353 l 2
 392 353 392 350 391 347 c 0
 385 301 372 212 372 208 c 0
 372 204 374 202 379 202 c 2
 480 202 l 2
 491 202 498 199 498 180 c 0
 498 164 494 157 480 157 c 2
 376 157 l 2
 366 157 364 152 363 146 c 0
 338 -32 340 -27 337 -33 c 0
 333 -41 325 -43 315 -43 c 0
 300 -43 295 -37 295 -29 c 0
 295 -22 319 146 319 151 c 0
 319 156 315 157 311 157 c 2
 242 157 l 2
 201 157 199 156 198 149 c 0
 173 -31 174 -29 172 -34 c 0
 168 -41 162 -43 147 -43 c 0
 137 -43 128 -40 128 -29 c 0
 128 -23 153 145 153 150 c 0
 153 155 150 157 144 157 c 2
 70 157 l 2
 56 157 54 165 54 176 c 0
 54 193 54 202 70 202 c 2
 157 202 l 2
 159 202 160 202 160 204 c 0
 167 252 180 343 180 348 c 0
 180 352 177 353 173 353 c 2
 72 353 l 2
 61 353 54 356 54 375 c 0
 54 390 58 398 72 398 c 2
 180 398 l 2
 187 398 189 401 189 406 c 0
 217 604 215 602 218 607 c 0
 222 613 227 615 241 615 c 2
 242 615 l 2
 250 615 262 614 262 602 c 0
 262 595 234 409 234 403 c 0
 234 399 237 398 242 398 c 2
 346 398 l 2
 350 398 354 398 355 405 c 0
 383 603 382 604 385 608 c 0
 389 614 397 615 401 615 c 2
 404 615 l 1
EndSplineSet
EndChar

StartChar: less
Encoding: 11 60 17
Width: 672
Flags: HW
LayerCount: 2
Fore
SplineSet
52 249 m 2
 52 260 62 264 70 267 c 0
 591 457 590 458 598 458 c 0
 610 458 621 447 621 420 c 0
 621 408 612 403 602 400 c 2
 161 239 l 1
 608 77 l 2
 616 74 621 69 621 60 c 0
 621 50 615 23 592 23 c 0
 584 23 587 23 69 212 c 0
 60 215 52 219 52 230 c 2
 52 249 l 2
EndSplineSet
EndChar

StartChar: greater
Encoding: 12 62 18
Width: 672
Flags: HW
LayerCount: 2
Fore
SplineSet
621 249 m 2
 621 230 l 2
 621 219 613 215 604 212 c 0
 88 24 88 23 81 23 c 0
 58 23 52 50 52 60 c 0
 52 69 57 74 65 77 c 2
 512 239 l 1
 71 400 l 2
 61 403 52 408 52 420 c 0
 52 447 63 458 75 458 c 0
 83 458 82 457 603 267 c 0
 611 264 621 260 621 249 c 2
EndSplineSet
EndChar

StartChar: percent
Encoding: 5 37 19
Width: 820
Flags: W
HStem: -93 39<636.5 670.5 636.5 672.5> 170 38<188.5 222.5 188.5 224.5> 252 38<601 657.5> 515 38<153 209.5>
VStem: 41 60<358.5 403 358.5 415> 271 60<339 387> 489 60<96 116 96 152> 719 60<76.5 124.5>
LayerCount: 2
Fore
SplineSet
213 -123 m 0
 201 -123 188 -115 188 -104 c 0
 188 -99 190 -96 192 -92 c 0
 587 582 586 581 590 585 c 0
 595 591 603 595 613 595 c 0
 621 595 643 591 643 577 c 0
 643 573 641 569 639 566 c 0
 238 -110 240 -107 235 -112 c 0
 230 -118 223 -123 213 -123 c 0
179 515 m 0
 115 515 101 427 101 379 c 0
 101 338 113 256 149 225 c 0
 166 211 184 208 193 208 c 0
 252 208 263 272 266 293 c 0
 269 311 271 330 271 348 c 0
 271 426 240 515 179 515 c 0
193 553 m 0
 248 553 331 513 331 375 c 0
 331 254 270 170 179 170 c 0
 124 170 41 209 41 346 c 0
 41 484 113 553 193 553 c 0
627 252 m 0
 563 252 548 165 548 118 c 1
 549 116 l 1
 549 76 561 -6 597 -37 c 0
 614 -52 632 -54 641 -54 c 0
 700 -54 711 10 714 30 c 0
 717 48 719 67 719 86 c 0
 719 163 688 252 627 252 c 0
641 290 m 0
 696 290 779 250 779 112 c 0
 779 -8 718 -93 627 -93 c 0
 572 -93 489 -54 489 83 c 0
 489 221 561 290 641 290 c 0
EndSplineSet
EndChar

StartChar: NameMe.66773
Encoding: 256 -1 20
Width: 551
VWidth: 988
Flags: W
HStem: 0 21G<70 126.5 398 487> 480 20G<422 487>
VStem: 70 88<144.421 728> 398 89<0 357.625>
LayerCount: 2
Fore
SplineSet
70 728 m 1
 158 728 l 1
 158 192 l 2
 157 169 l 0
 157 161 157 153 156 144 c 1
 400 484 l 2
 402 486 404 489 407 492 c 0
 409 494 412 496 414 497 c 0
 416 498 420 500 424 500 c 0
 428 500 433 500 437 500 c 2
 487 500 l 1
 487 0 l 1
 398 0 l 1
 398 312 l 2
 399 334 l 0
 399 342 399 350 400 358 c 1
 156 17 l 2
 154 14 149 10 141 4 c 0
 137 1 131 0 122 0 c 2
 70 0 l 1
 70 728 l 1
EndSplineSet
EndChar

StartChar: NameMe.66774
Encoding: 257 -1 21
Width: 551
VWidth: 988
Flags: W
HStem: 0 21G<70 126.5> 480 20G<70 158 422 487>
VStem: 70 88<144.421 500> 398 89<-169 357.625>
LayerCount: 2
Fore
SplineSet
70 500 m 1
 158 500 l 1
 158 192 l 2
 158 185 157 177 157 169 c 0
 157 161 157 153 156 144 c 1
 400 484 l 2
 402 486 404 489 407 492 c 0
 409 494 412 496 414 497 c 0
 416 498 420 500 424 500 c 0
 428 500 433 500 437 500 c 2
 487 500 l 1
 487 -169 l 1
 398 -169 l 1
 398 312 l 2
 398 319 399 326 399 334 c 0
 399 342 399 350 400 358 c 1
 156 17 l 2
 154 14 149 10 141 4 c 0
 137 1 131 0 122 0 c 2
 70 0 l 1
 70 500 l 1
EndSplineSet
EndChar

StartChar: NameMe.66777
Encoding: 258 -1 22
Width: 415
VWidth: 988
Flags: W
HStem: 0 21G<101 125.5 298.5 357> 480 20G<269 357>
VStem: 70 88<64 728> 269 88<109.359 500> 281 76<0.0703125 72>
LayerCount: 2
Fore
SplineSet
158 64 m 1xe8
 175 67 192 73 207 81 c 0
 230 93 250 110 269 132 c 1
 269 500 l 1
 357 500 l 1xf0
 357 0 l 1
 305 0 l 2
 292 0 284 6 281 18 c 1
 274 72 l 1
 252 48 228 29 201 16 c 0
 174 3 143 -3 108 -3 c 0
 94 -3 82 -2 70 -0 c 1
 70 32 70 32 70 728 c 1
 158 728 l 1
 158 64 l 1xe8
EndSplineSet
EndChar

StartChar: NameMe.66775
Encoding: 259 -1 23
Width: 415
VWidth: 988
Flags: W
HStem: 0 21G<70 150.5> 480 20G<272 357>
VStem: 70 88<76 728> 272 85<126.563 500>
LayerCount: 2
Fore
SplineSet
158 76 m 17
 234 89 272 132 272 204 c 10
 272 500 l 1
 357 500 l 1
 357 202 l 2
 357 141 335 92 292 56 c 0
 248 19 188 0 113 0 c 2
 70 0 l 1
 70 728 l 1
 158 728 l 1
 158 76 l 17
EndSplineSet
EndChar

StartChar: NameMe.66778
Encoding: 260 -1 24
Width: 415
VWidth: 988
Flags: W
HStem: 0 21G<70 158> 480 20G<70 128.5 301.5 326>
VStem: 70 88<0 391.641> 70 76<428 499.93> 269 88<-169 436>
LayerCount: 2
Fore
SplineSet
269 436 m 1xd8
 252 433 235 428 220 420 c 0
 197 408 177 391 158 369 c 1
 158 0 l 1
 70 0 l 1xe8
 70 500 l 1
 122 500 l 2
 135 500 143 494 146 482 c 1
 153 428 l 1
 175 452 199 471 226 484 c 0
 253 497 284 504 319 504 c 0
 333 504 345 503 357 501 c 1
 357 498 357 498 357 -169 c 1
 269 -169 l 1
 269 436 l 1xd8
EndSplineSet
EndChar

StartChar: NameMe.66776
Encoding: 261 -1 25
Width: 415
VWidth: 988
Flags: W
HStem: 0 21G<70 155> 480 20G<276.5 357>
VStem: 70 85<0 372.088> 269 88<-169 424>
LayerCount: 2
Fore
SplineSet
269 424 m 17
 193 411 155 368 155 296 c 10
 155 0 l 1
 70 0 l 1
 70 299 l 2
 70 360 92 409 135 445 c 0
 179 482 239 500 314 500 c 2
 357 500 l 1
 357 -169 l 1
 269 -169 l 1
 269 424 l 17
EndSplineSet
EndChar

StartChar: NameMe.66779
Encoding: 262 -1 26
Width: 550
VWidth: 988
Flags: W
HStem: 0 78<158 275.633> 480 20G<70 158 398 487>
VStem: 70 88<78 500> 398 89<178.004 500> 409 78<0.287109 140>
LayerCount: 2
Fore
SplineSet
403 140 m 1xe8
 356 47 272 0 150 0 c 0
 110 0 110 0 70 0 c 1
 70 77 l 2
 70 466 l 0
 70 500 l 1
 158 500 l 0
 158 78 l 0
 162 78 l 2
 267 78 338 111 377 178 c 0
 385 191 392 207 398 224 c 1
 398 500 l 1
 487 500 l 1xf0
 487 0 l 1
 436 0 l 2
 419 0 410 8 409 24 c 2
 403 140 l 1xe8
EndSplineSet
EndChar

StartChar: NameMe.66780
Encoding: 263 -1 27
Width: 550
VWidth: 988
Flags: W
HStem: 0 77<158 218.839> 480 20G<70 158 403.5 487>
VStem: 70 88<77 500> 398 89<0 359>
LayerCount: 2
Fore
SplineSet
487 500 m 1
 487 0 l 1
 443 0 442 0 398 0 c 1
 398 282 l 2
 398 316 399 338 400 347 c 0
 401 351 402 355 402 359 c 257
 369 120 281 0 139 0 c 2
 70 0 l 1
 70 500 l 1
 158 500 l 1
 158 77 l 1
 258 77 334 213 384 483 c 0
 386 495 395 500 412 500 c 2
 487 500 l 1
EndSplineSet
EndChar

StartChar: NameMe.66781
Encoding: 264 -1 28
Width: 359
VWidth: 988
Flags: W
HStem: 0 21G<70 158> 423 86<222.581 345.904>
VStem: 70 88<0 362.216 401 728>
LayerCount: 2
Fore
SplineSet
158 728 m 5
 158 460 l 4
 158 401 l 5
 173 435 191 461 213 480 c 4
 235 499 262 509 295 509 c 4
 306 509 316 508 326 506 c 4
 336 504 344 501 352 496 c 5
 346 430 l 5
 344 421 339 417 331 417 c 4
 326 417 319 418 310 420 c 4
 301 422 292 423 281 423 c 4
 265 423 250 421 238 416 c 4
 226 411 215 404 205 395 c 4
 195 386 187 374 179 361 c 4
 171 348 165 332 158 315 c 5
 158 0 l 5
 100 0 l 4
 70 0 l 5
 70 728 l 5
 158 728 l 5
EndSplineSet
EndChar

StartChar: NameMe.66782
Encoding: 265 -1 29
Width: 359
VWidth: 988
Flags: W
HStem: -7 87<26.0967 149.419> 480 20G<214 302>
VStem: 214 88<-169 101 139.784 500>
LayerCount: 2
Fore
SplineSet
214 -169 m 1
 214 42 l 0
 214 101 l 1
 199 67 181 41 159 22 c 0
 137 3 110 -7 77 -7 c 0
 66 -7 56 -5 46 -3 c 0
 36 -1 28 2 20 7 c 1
 26 73 l 1
 28 82 34 85 42 85 c 0
 47 85 53 85 62 83 c 0
 71 81 80 80 91 80 c 0
 107 80 122 82 134 87 c 0
 146 92 157 98 167 107 c 0
 177 116 185 128 193 141 c 0
 201 154 207 170 214 187 c 1
 214 500 l 1
 272 500 l 0
 302 500 l 1
 302 -169 l 1
 214 -169 l 1
EndSplineSet
EndChar

StartChar: NameMe.66783
Encoding: 266 -1 30
Width: 471
VWidth: 988
Flags: W
HStem: -174 68<223.104 376.686> 440 68<226.167 378.785>
VStem: 56 90<-1.39722 336.01>
LayerCount: 2
Fore
SplineSet
432 412 m 2
 429 408 427 405 424 403 c 0
 421 401 419 400 414 400 c 0
 409 400 403 402 397 406 c 0
 391 410 384 415 376 420 c 0
 368 425 357 430 345 434 c 0
 333 438 319 440 302 440 c 0
 276 440 253 435 234 424 c 0
 215 413 198 397 185 375 c 0
 172 353 162 324 156 290 c 0
 150 256 146 214 146 167 c 0
 146 117 150 75 157 40 c 0
 164 5 174 -23 187 -45 c 0
 200 -67 217 -82 236 -92 c 0
 255 -102 277 -106 302 -106 c 0
 321 -106 336 -104 349 -99 c 0
 362 -94 371 -88 380 -82 c 0
 389 -76 396 -69 402 -64 c 0
 408 -59 414 -57 420 -57 c 0
 424 -57 427 -58 430 -59 c 0
 433 -60 435 -62 437 -65 c 2
 461 -97 l 1
 450 -111 439 -122 425 -132 c 0
 411 -142 396 -150 381 -156 c 0
 366 -162 350 -167 334 -170 c 0
 318 -173 302 -174 287 -174 c 0
 253 -174 221 -168 193 -156 c 0
 165 -144 141 -124 121 -97 c 0
 101 -70 84 -35 73 7 c 0
 62 49 56 101 56 162 c 0
 56 276 76 361 117 420 c 0
 158 479 217 508 294 508 c 0
 328 508 358 502 385 491 c 0
 412 480 435 464 456 443 c 1
 432 412 l 2
EndSplineSet
EndChar

StartChar: NameMe.66784
Encoding: 267 -1 31
Width: 446
VWidth: 988
Flags: W
HStem: -179 67<166.628 313.656> 432 68<29 293>
VStem: 30 75<-50.9284 116.254>
LayerCount: 2
Fore
SplineSet
293 432 m 1
 29 432 l 1
 29 500 l 1
 406 500 l 1
 406 464 l 2
 406 460 405 455 403 449 c 0
 401 442 398 436 394 432 c 2
 166 173 l 2
 125 126 105 80 105 35 c 3
 105 -14 119 -50 146 -75 c 0
 174 -100 205 -112 241 -112 c 3
 277 -112 313 -96 351 -64 c 1
 366 -52 379 -54 390 -69 c 2
 411 -97 l 1
 362 -152 303 -179 234 -179 c 0
 177 -179 130 -161 91 -126 c 0
 50 -89 30 -41 30 19 c 3
 30 91 56 157 107 217 c 2
 293 432 l 1
EndSplineSet
EndChar

StartChar: py
Encoding: 20 60800 32
Width: 514
GlyphClass: 2
Flags: W
HStem: -6 51<158.989 304.419> -6 42<21.0267 80.623> 378 44<293.039 368.325 444.22 497.993>
VStem: 87 71<49.25 609.081> 370 74<177.102 377.999>
AnchorPoint: "Top" 400.222 618 basechar 0
AnchorPoint: "Bottom" 226 0 basechar 0
LayerCount: 2
Fore
SplineSet
231 -6 m 0xb8
 228 -6 176 0 127 0 c 0
 76 0 36 -6 33 -6 c 0
 21 -6 21 5 21 14 c 0
 21 31 30 30 58 36 c 0x78
 81 40 81 56 82 70 c 0
 85 161 87 253 87 345 c 2
 87 349 l 2
 87 430 84 588 83 594 c 0
 78 619 12 610 12 636 c 0
 12 648 26 654 28 655 c 0
 135 717 136 719 143 719 c 2
 144 719 l 2
 150 719 159.051947504 715.999831339 159 700 c 2
 158 392 l 0
 158 386 159 62 159 62 c 1
 158.999998713 48.2929042327 197.999334673 45 241 45 c 3
 273 45 302 61 322 81 c 0
 347 108 370 147 370 291 c 0
 370 367 370 375 350 378 c 0
 306 384 293 380 293 401 c 2
 293 408 l 2
 293 415 295 422 304 422 c 0
 307 422 346 416 394 416 c 0
 444 416 482 422 485 422 c 0
 493 422 498 418 498 400 c 0
 498 386 489 383 481 382 c 0
 456 379 444 378 444 350 c 0
 439.268327766 128.794323037 376.87109375 -6 231 -6 c 0xb8
EndSplineSet
EndChar

StartChar: ty
Encoding: 21 60801 33
Width: 514
GlyphClass: 2
Flags: W
HStem: -6 42<21.0267 80.623 293.01 367.94 444.564 497.985> 371 51<192.054 305.085>
VStem: 87 66<39.8055 348.283 385.001 609.081> 370 74<38.0009 293.71>
AnchorPoint: "Top" 344 619 basechar 0
AnchorPoint: "Bottom" 277 0 basechar 0
LayerCount: 2
Fore
SplineSet
293 8 m 2
 293 15 l 2
 293 36 306 32 350 38 c 0
 370 41 370 49 370 125 c 0
 370 269 347 308 322 335 c 0
 302 355 273 371 241 371 c 0
 198 371 159 342 154 322 c 0
 153 318 153 314 153 309 c 0
 153 303 153 69 155 62 c 0
 163 19 230 51 230 15 c 0
 230 6 228 -6 219 -6 c 0
 216 -6 176 0 127 0 c 0
 76 0 36 -6 33 -6 c 0
 21 -6 21 5 21 14 c 0
 21 31 30 30 58 36 c 0
 81 40 81 56 82 70 c 0
 85 161 87 253 87 345 c 2
 87 349 l 2
 87 430 84 588 83 594 c 0
 78 619 12 610 12 636 c 0
 12 648 26 654 28 655 c 0
 135 717 136 719 143 719 c 2
 144 719 l 2
 150 719 159 716 159 700 c 2
 158 392 l 2
 158 386 161 385 163 385 c 0
 169 385 213 422 281 422 c 0
 347 422 392 384 415 331 c 0
 435 284 440 253 444 66 c 0
 444 38 456 37 481 34 c 0
 489 33 498 30 498 16 c 0
 498 -2 493 -6 485 -6 c 0
 482 -6 444 0 394 0 c 0
 346 0 307 -6 304 -6 c 0
 295 -6 293 1 293 8 c 2
EndSplineSet
EndChar

StartChar: ky
Encoding: 22 60802 34
Width: 514
GlyphClass: 2
Flags: W
HStem: -14 21G<381 389> -6 42<21.0267 80.623> 382 33<288.004 347.538> 399 20G<418.5 432>
VStem: 87 71<62.0063 609.081> 373 67<68.8911 262.037 306.391 363.62>
AnchorPoint: "Top" 400.222 618 basechar 0
AnchorPoint: "Bottom" 264 0 basechar 0
LayerCount: 2
Fore
SplineSet
369 340 m 2x4c
 369 346 l 2
 369 346 354 373 303 382 c 0
 293 384 288 388 288 398 c 0
 288 411 294 414 302 415 c 0x6c
 400 418 412 419 425 419 c 0
 439 419 440 409 440 399 c 2
 440 86 l 2
 440 74 446 77 490 56 c 0
 497 53 498 50 498 44 c 0
 498 14 484 37 398 -10 c 0
 395 -12 391 -14 387 -14 c 0x9c
 375 -14 373 4.06556365219 373 6 c 2
 373 258 l 2
 373 262 370.57037958 262.821702787 370 262 c 0
 345.976881934 227.39170797 242.557617188 79.3720703125 173 10 c 4
 164 1.0244140625 142 0 127 0 c 0
 76 0 36 -6 33 -6 c 0
 21 -6 21 5 21 14 c 0
 21 31 30 30 58 36 c 0
 81 40 81 56 82 70 c 0
 85 161 87 253 87 345 c 2
 87 349 l 2
 87 430 84 588 83 594 c 0
 78 619 12 610 12 636 c 0
 12 648 26 654 28 655 c 0
 135 717 136 719 143 719 c 2
 144 719 l 2
 150 719 159.051947504 715.999831339 159 700 c 2
 158 392 l 0
 158 386 159 62 159 62 c 17
 191.015298363 90.9228449585 369 311.906454679 369 340 c 2x4c
293 408 m 1026
394 416 m 1024
EndSplineSet
EndChar

StartChar: fy
Encoding: 23 60803 35
Width: 361
GlyphClass: 2
Flags: W
HStem: 0 65<113.95 290.69>
VStem: 155 72<236.116 431> 291 47<-92.6147 -3.0012e-08> 309 41<65.8229 140.75>
AnchorPoint: "Top" 187 619 basechar 0
AnchorPoint: "Bottom" 228 0 basechar 0
LayerCount: 2
Back
SplineSet
154 121 m 6xd0
 154 237 155 295 155 314 c 4
 155 330 151 329 87 355 c 4
 82 357 75 360 75 368 c 4
 75 380 91 384 102 389 c 4
 206 439 207 441 212 441 c 6
 213 441 l 6
 219 441 227 437 227 425 c 4
 227 417 221 320 221 198 c 6
 221 165 l 6
 221 43 222 40 244 37 c 4
 277 32 289 33 289 16 c 4
 289 8 288 -6 277 -6 c 4
 274 -6 234 0 185 0 c 4
 135 0 96 -6 93 -6 c 4
 83 -6 78 1 78 11 c 4
 78 34 82 32 127 38 c 4
 152 42 154 56 154 74 c 6
 154 121 l 6xd0
65 454 m 6xf0
 71 454 l 6
 94 454 74 417 99 417 c 6
 317 417 l 6
 329 417 339 413 339 402 c 4
 339 396 335 392 333 388 c 4
 107 81 106 83 106 76 c 4
 106 66 114 65 122 65 c 6
 267 65 l 6
 273 65 279 64 282 64 c 4
 301 64 299 74 309 125 c 4
 310 128 312 141 326 141 c 4
 333 141 350 138 350 124 c 4xe8
 350 120 337 61 337 -19 c 4
 337 -51 338 -67 338 -73 c 4
 338 -88 328 -93 308 -93 c 4
 294 -93 291 -85 291 -75 c 6
 291 -15 l 6
 291 -1 283 0 274 0 c 6
 42 0 l 6
 16 0 12 14 12 23 c 4
 12 35 20 45 25 53 c 6
 229 328 l 6
 232 331 235 336 235 341 c 4
 235 352 225 355 215 355 c 6
 96 355 l 6
 82 355 83 349 74 310 c 4
 73 307 71 294 57 294 c 4
 52 294 39 297 39 307 c 4
 39 310 49 351 49 409 c 6
 49 439 l 6
 49 451 57 454 65 454 c 6xf0
EndSplineSet
Fore
SplineSet
106 76 m 0xe0
 100.078653594 68.1888621877 114 65 122 65 c 2
 267 65 l 2
 273 65 279 64 282 64 c 0
 301 64 299 74 309 125 c 0
 310 128 312 141 326 141 c 0
 333 141 350 138 350 124 c 0xd0
 350 120 337 61 337 -19 c 0
 337 -51 338 -67 338 -73 c 0
 338 -88 328 -93 308 -93 c 0
 294 -93 291 -85 291 -75 c 2
 291 -15 l 2
 291 -1 283 0 274 0 c 2
 42 0 l 2
 16 0 12 14 12 23 c 0
 12 35 17.3522800174 42.9767346458 25 54 c 0
 83.2775119617 138 155 198.98261001 155 314 c 3
 155 330 151 329 87 355 c 0
 82 357 75 360 75 368 c 0
 75 380 91 384 102 389 c 0
 206 439 207 441 212 441 c 2
 213 441 l 2
 219 441 227 437 227 425 c 3
 227 222 192.419354839 190 106 76 c 0xe0
EndSplineSet
EndChar

StartChar: ly
Encoding: 24 60804 36
Width: 381
GlyphClass: 2
Flags: W
HStem: -18 64<167.358 299.435> 376 52<142.345 251.426>
VStem: 17 66<134.62 305.205>
AnchorPoint: "Top" 208 619 basechar 0
AnchorPoint: "Bottom" 223 1 basechar 0
LayerCount: 2
Fore
SplineSet
209 -18 m 0
 94 -18 17 74 17 197 c 0
 17 333 103 428 231 428 c 0
 303 428 358 392 358 354 c 0
 358 331 339 316 318 316 c 0
 272 316 255 376 197 376 c 0
 136 376 83 306 83 222 c 0
 83 129 149 46 241 46 c 0
 319 46 340 100 363 100 c 0
 372 100 380 93 380 83 c 0
 380 77 377 71 374 67 c 0
 342 23 284 -18 209 -18 c 0
EndSplineSet
EndChar

StartChar: sy
Encoding: 25 60805 37
Width: 494
GlyphClass: 2
Flags: W
HStem: -21 52<181.137 326.745> 383 40<159.841 319.221>
VStem: 17 67<127.427 307.105> 355 71<69.2324 354.672 408.003 610.663>
AnchorPoint: "Top" 177.205 619 basechar 0
AnchorPoint: "Bottom" 249 0 basechar 0
LayerCount: 2
Fore
SplineSet
238 383 m 0
 136 383 84 317 84 216 c 0
 84 92 189 31 258 31 c 0
 296 31 344 48 352 74 c 0
 354 82 355 89 355 97 c 2
 355 321 l 2
 355 328 355 335 345 345 c 0
 315 373 275 383 238 383 c 0
240 423 m 2
 305 423 343 408 348 408 c 0
 353 408 355 412 355 417 c 2
 355 585 l 2
 355 605 348 605 295 626 c 0
 288 628 276 632 276 642 c 0
 276 648 282 651 285 653 c 0
 391 705 410 714 414 714 c 0
 422 714 426 708 426 700 c 0
 426 667 423 570 423 376 c 0
 423 277 425 91 426 82 c 0
 427 67 437 70 473 68 c 0
 474 68 492 68 492 54 c 0
 492 39 473 39 433 16 c 0
 387 -9 374 -28 364 -28 c 0
 361 -28 356 -27 356 -18 c 2
 356 15 l 2
 356 17 355 18 354 18 c 0
 351 18 313 -21 235 -21 c 0
 104 -21 17 81 17 207 c 0
 17 311 81 423 239 423 c 2
 240 423 l 2
EndSplineSet
EndChar

StartChar: cy
Encoding: 26 60806 38
Width: 499
GlyphClass: 2
Flags: W
HStem: -6 42<11.1138 75.251 145.568 220.772 294.036 361.915 427.242 488.974> 384 49<199.31 317.254>
VStem: 76 69<38.2075 347.206> 360 68<35.7859 341.221 422 610.662>
AnchorPoint: "Top" 117.205 619 basechar 0
AnchorPoint: "Bottom" 260 0 basechar 0
LayerCount: 2
Back
SplineSet
243 383 m 0
 141 383 89 317 89 216 c 0
 89 92 194 31 263 31 c 0
 301 31 349 48 357 74 c 0
 359 82 360 89 360 97 c 2
 360 321 l 2
 360 328 360 335 350 345 c 0
 320 373 280 383 243 383 c 0
245 423 m 2
 310 423 348 408 353 408 c 4
 358 408 360 412 360 417 c 6
 360 585 l 6
 360 605 353 605 300 626 c 4
 293 628 281 632 281 642 c 4
 281 648 287 651 290 653 c 4
 396 705 415 714 419 714 c 4
 427 714 431 708 431 700 c 4
 431 667 428 570 428 376 c 4
 428 277 430 91 431 82 c 0
 432 67 442 70 478 68 c 0
 479 68 497 68 497 54 c 0
 497 39 478 39 438 16 c 0
 392 -9 379 -28 369 -28 c 0
 366 -28 361 -27 361 -18 c 2
 361 15 l 2
 361 17 360 18 359 18 c 0
 356 18 318 -21 240 -21 c 0
 109 -21 22 81 22 207 c 0
 22 311 86 423 244 423 c 2
 245 423 l 2
EndSplineSet
Fore
SplineSet
351 417 m 1
 356.293186367 414.24676992 359.825549945 417.245629122 360 422 c 0
 360 585 l 2
 360 604.995921773 353 605 300 626 c 0
 293 628 281 632 281 642 c 0
 281 648 287 651 290 653 c 0
 396 705 415 714 419 714 c 0
 427 714 431 708 431 700 c 0
 431 667 428 570 428 376 c 1
 428 238 l 0
 428 221 427 203 427 65 c 2
 427 63 l 2
 427 35 440 37 475 32 c 0
 488 30 489 21 489 14 c 0
 489 -3 480 -6 474 -6 c 0
 465 -6 440 0 390 0 c 0
 346 0 310 -6 308 -6 c 0
 296 -6 294 4 294 14 c 0
 294 32 306 30 346 37 c 0
 359 39 362 44 362 61 c 2
 362 216 l 2
 362 234 361 294 349 324 c 0
 327 375 272 384 249 384 c 0
 191 384 150 337 146 319 c 0
 145 315 145 310 145 306 c 2
 145 69 l 1
 145 66 l 2
 145 55 146 41 167 38 c 0
 209 31 221 33 221 11 c 0
 221 1 217 -7 208 -7 c 0
 205 -7 164 0 115 0 c 0
 67 0 30 -6 27 -6 c 0
 21 -6 11 -2 11 12 c 0
 11 32 19 31 50 36 c 0
 75 40 76 53 76 70 c 2
 76 309 l 2
 76 333 76 331 31 365 c 0
 28 368 25 371 25 375 c 2
 25 376 l 2
 25 384 27 383 120 433 c 0
 123 435 126 437 130 437 c 0
 139 437 142 430 142 422 c 2
 142 383 l 2
 142 381 141 378 141 377 c 0
 141 374 143 373 144 373 c 2
 145 373 l 2
 149 373 196 432 282 433 c 2
 284 433 l 2
 304.848632348 433 323.955078125 433.939453125 351 417 c 1
EndSplineSet
EndChar

StartChar: my
Encoding: 27 60807 39
Width: 361
GlyphClass: 2
Flags: W
HStem: 0 65<118.266 290.69> 387 47<123.78 236.563>
VStem: 258 70<262.496 364.658> 291 47<-92.6147 -3.0012e-08> 309 41<65.8229 140.75>
AnchorPoint: "Top" 185 618 basechar 0
AnchorPoint: "Bottom" 226 0 basechar 0
LayerCount: 2
Back
SplineSet
65 454 m 6xf0
 71 454 l 6
 94 454 74 417 99 417 c 6
 317 417 l 6
 329 417 339 413 339 402 c 4
 339 396 335 392 333 388 c 4
 107 81 106 83 106 76 c 4
 106 66 114 65 122 65 c 6
 267 65 l 6
 273 65 279 64 282 64 c 4
 301 64 299 74 309 125 c 4
 310 128 312 141 326 141 c 4
 333 141 350 138 350 124 c 4xe8
 350 120 337 61 337 -19 c 4
 337 -51 338 -67 338 -73 c 4
 338 -88 328 -93 308 -93 c 4
 294 -93 291 -85 291 -75 c 6
 291 -15 l 6
 291 -1 283 0 274 0 c 6
 42 0 l 6
 16 0 12 14 12 23 c 4
 12 35 20 45 25 53 c 6
 229 328 l 6
 232 331 235 336 235 341 c 4
 235 352 225 355 215 355 c 6
 96 355 l 6
 82 355 83 349 74 310 c 4
 73 307 71 294 57 294 c 4
 52 294 39 297 39 307 c 4
 39 310 49 351 49 409 c 6
 49 439 l 6
 49 451 57 454 65 454 c 6xf0
EndSplineSet
Fore
SplineSet
106 76 m 1xe0
 95.1019428723 63.9178554602 109.177048178 65 122 65 c 2
 267 65 l 2
 273 65 279 64 282 64 c 0
 301 64 299 74 309 125 c 0
 310 128 312 141 326 141 c 0
 333 141 350 138 350 124 c 0xc8
 350 120 337 61 337 -19 c 0
 337 -51 338 -67 338 -73 c 0
 338 -88 328 -93 308 -93 c 0
 294 -93 291 -85 291 -75 c 2
 291 -15 l 2xd0
 291 -1 283 0 274 0 c 2
 42 0 l 2
 16 0 12 14 12 23 c 0
 12 35 25 53 25 53 c 1
 206 229 l 2
 235.340318529 257.529812492 258 282.517142368 258 320 c 3
 258 347.669921875 231.482948268 387 177 387 c 3
 120 387 93 324 91 320 c 0
 88 316 82 309 69 309 c 0
 50 309 29 322 29 345 c 0
 29 381 100 434 183 434 c 0
 221 434 328 417.44921875 328 327 c 3
 328 287.918945312 312 242.636942675 263 203 c 2
 106 76 l 1xe0
EndSplineSet
EndChar

StartChar: xy
Encoding: 28 60808 40
Width: 467
GlyphClass: 2
Flags: W
HStem: -19 49<167.083 305.289> 385 47<165.676 296.741>
VStem: 21 78<107.025 304.389> 378 68<109.681 295.193>
AnchorPoint: "Top" 241 618.658 basechar 0
AnchorPoint: "Bottom" 239 1 basechar 0
LayerCount: 2
Fore
SplineSet
21 204 m 0
 21 343 125 432 237 432 c 0
 356 432 446 338 446 204 c 0
 446 61 345 -19 233 -19 c 0
 106 -19 21 81 21 204 c 0
236 30 m 0
 321 30 378 111 378 200 c 0
 378 307 306 385 230 385 c 0
 178 385 99 343 99 209 c 0
 99 105 154 30 236 30 c 0
EndSplineSet
EndChar

StartChar: denpabu
Encoding: 29 60809 41
Width: 227
GlyphClass: 2
Flags: W
HStem: 201 117<67.9846 158.932>
VStem: 54 119<214.578 303.753>
AnchorPoint: "Top" 113 619 basechar 0
AnchorPoint: "Bottom" 113 0 basechar 0
LayerCount: 2
Fore
SplineSet
113 318 m 0
 145 318 173 292 173 259 c 0
 173 228 148 201 114 201 c 0
 83 201 54 225 54 260 c 0
 54 295 82 318 113 318 c 0
EndSplineSet
Substitution2: "Single Substitution lookup 73 subtable" denpabu.cas
EndChar

StartChar: yhy
Encoding: 30 60810 42
Width: 243
GlyphClass: 2
Flags: W
HStem: -6 44<18.136 93.0582 163.719 228.991>
VStem: 94 67<39.1511 336.573>
AnchorPoint: "Top" 152 619 basechar 0
AnchorPoint: "Bottom" 119 0 basechar 0
LayerCount: 2
Fore
SplineSet
94 121 m 2
 94 237 95 295 95 314 c 0
 95 330 91 329 27 355 c 0
 22 357 15 360 15 368 c 0
 15 380 31 384 42 389 c 0
 146 439 147 441 152 441 c 2
 153 441 l 2
 159 441 167 437 167 425 c 0
 167 417 161 320 161 198 c 2
 161 165 l 2
 161 43 162 40 184 37 c 0
 217 32 229 33 229 16 c 0
 229 8 228 -6 217 -6 c 0
 214 -6 174 0 125 0 c 0
 75 0 36 -6 33 -6 c 0
 23 -6 18 1 18 11 c 0
 18 34 22 32 67 38 c 0
 92 42 94 56 94 74 c 2
 94 121 l 2
EndSplineSet
Substitution2: "Single Substitution lookup 75 subtable" yhy.cas
Substitution2: "Single Substitution lookup 74 subtable" yhy.cas
EndChar

StartChar: cnimahobu
Encoding: 31 60811 43
Width: 464
VWidth: 988
GlyphClass: 2
Flags: W
HStem: 0 21G<306 394> 306 87<27.1897 209.657> 480 20G<304 394>
VStem: 306 88<0 415>
LayerCount: 2
Fore
SplineSet
306 0 m 1
 306 415 l 1
 293 387 267 360 224 335 c 0
 191 316 151 306 102 306 c 0
 86 306 70 308 56 310 c 0
 42 312 29 315 18 320 c 1
 27 386 l 1
 31 395 38 399 50 399 c 0
 57 399 67 398 80 396 c 0
 93 394 108 393 124 393 c 0
 148 393 169 395 187 400 c 0
 205 405 221 412 236 421 c 0
 250 430 264 441 275 454 c 0
 292 474 302 489 306 500 c 1
 394 500 l 1
 394 0 l 1
 306 0 l 1
EndSplineSet
EndChar

StartChar: patonga
Encoding: 32 60812 44
Width: 0
VWidth: 988
GlyphClass: 4
Flags: W
HStem: -204 141
VStem: -359 198
AnchorPoint: "Bottom" -260 0 mark 0
LayerCount: 2
Fore
SplineSet
-161 -63 m 5
 -276 -190 l 6
 -281 -195 -286 -199 -290 -201 c 4
 -294 -203 -300 -204 -307 -204 c 6
 -359 -204 l 5
 -286 -84 l 6
 -281 -76 -276 -71 -271 -68 c 4
 -266 -65 -258 -63 -247 -63 c 6
 -161 -63 l 5
EndSplineSet
EndChar

StartChar: retonga
Encoding: 33 60813 45
Width: 0
VWidth: 988
GlyphClass: 4
Flags: W
HStem: -204 141
VStem: -348 196
AnchorPoint: "Bottom" -250 0 mark 0
LayerCount: 2
Fore
SplineSet
-265 -63 m 6
 -254 -63 -245 -65 -240 -68 c 4
 -235 -71 -231 -76 -226 -84 c 6
 -152 -204 l 5
 -202 -204 l 6
 -209 -204 -215 -203 -219 -201 c 4
 -223 -199 -227 -195 -232 -190 c 6
 -348 -63 l 5
 -265 -63 l 6
EndSplineSet
EndChar

StartChar: citonga
Encoding: 34 60814 46
Width: 0
VWidth: 988
GlyphClass: 4
Flags: W
HStem: -199 130
VStem: -420 302
AnchorPoint: "Bottom" -269 0 mark 0
LayerCount: 2
Fore
SplineSet
-118 -199 m 5
 -177 -199 l 6
 -181 -199 -183 -199 -187 -197 c 4
 -191 -195 -194 -194 -196 -192 c 6
 -260 -125 l 6
 -262 -123 -263 -122 -264 -120 c 4
 -265 -118 -266 -117 -268 -115 c 5
 -270 -117 -271 -118 -272 -120 c 4
 -273 -122 -274 -123 -276 -125 c 6
 -340 -192 l 6
 -342 -194 -344 -195 -348 -197 c 4
 -352 -199 -355 -199 -359 -199 c 6
 -420 -199 l 5
 -310 -69 l 5
 -228 -69 l 5
 -118 -199 l 5
EndSplineSet
EndChar

StartChar: votonga
Encoding: 35 60815 47
Width: 0
VWidth: 988
GlyphClass: 4
Flags: W
HStem: -194 130
VStem: -421 302
AnchorPoint: "Bottom" -270 0 mark 0
LayerCount: 2
Fore
SplineSet
-119 -64 m 1
 -229 -194 l 1
 -311 -194 l 1
 -421 -64 l 1
 -360 -64 l 2
 -356 -64 -353 -64 -349 -66 c 0
 -345 -68 -343 -69 -341 -71 c 2
 -277 -138 l 2
 -275 -140 -274 -141 -273 -143 c 0
 -272 -145 -271 -146 -269 -148 c 1
 -267 -146 -266 -145 -265 -143 c 0
 -264 -141 -263 -140 -261 -138 c 2
 -197 -71 l 2
 -195 -69 -192 -68 -188 -66 c 0
 -184 -64 -182 -64 -178 -64 c 2
 -119 -64 l 1
EndSplineSet
EndChar

StartChar: by
Encoding: 36 60816 48
Width: 525
VWidth: 988
GlyphClass: 2
Flags: W
HStem: -235 45<290.501 370.591> -225 36<452.956 515.684> -6 42<12.2127 74.9061 148.006 244.986> 398 35<254.515 357.672> 421 21G<390 411.5>
VStem: 75 72<38.4996 237.592> 374 73<-182.941 -139 343 385.366>
AnchorPoint: "Top" 274 619 basechar 0
AnchorPoint: "Bottom" 122 -1 basechar 0
LayerCount: 2
Back
SplineSet
145 377 m 4
 149 377 222 432 249 442 c 4
 258 445 267 446 278 446 c 4
 310 446 356 430 356 402 c 6
 356 401 l 6
 355 384 337 373 329 366 c 4
 318 359 305 346 288 346 c 4
 263 346 262 371 229 371 c 4
 197 371 157 339 151 330 c 4
 147 324 147 319 147 312 c 6
 147 72 l 5
 147 68 l 6
 147 57 148 40 172 38 c 4
 232 33 245 37 245 14 c 4
 245 6 244 -6 231 -6 c 4
 228 -6 184 0 130 0 c 4
 74 0 31 -6 28 -6 c 4
 18 -6 12 1 12 11 c 4
 12 35 30 29 57 36 c 4
 71 39 75 45 75 60 c 6
 75 325 l 6
 75 345 67 344 20 378 c 4
 19 379 17 381 16 385 c 4
 16 390 17 388 121 439 c 4
 124 440 127 442 130 442 c 4
 141 442 142 431 142 422 c 6
 142 382 l 6
 142 379 143 377 145 377 c 4
259 401 m 4x3c
 165 401 88 327 88 233 c 4
 88 131 174 52 273 52 c 4
 310 52 353 66 366 78 c 4
 374 86 375 96 375 108 c 4
 375 131 375 155 372 343 c 4
 372 358 369 364 358 372 c 4
 329 391 294 401 259 401 c 4x3c
16 213 m 4
 16 308 86 434 283 434 c 4
 345 434 383 421 397 421 c 4
 426 421 424 446 435 446 c 4
 444 446 446 434 446 391 c 4
 446 382 447 373 447 364 c 6
 447 -139 l 6
 447 -183 463 -184 502 -189 c 4
 511 -191 516 -195 516 -203 c 4
 516 -212 512 -225 498 -225 c 4x7c
 492 -225 476 -223 443 -223 c 4
 367 -223 312 -235 308 -235 c 4
 297 -235 290 -228 290 -217 c 4
 290 -197 308 -197 345 -190 c 4xbc
 373 -184 374 -166 374 -150 c 6
 374 22 l 6
 374 26 372 29 368 29 c 4
 359 29 319 -9 239 -9 c 4
 118 -9 16 90 16 213 c 4
EndSplineSet
Fore
SplineSet
75 60 m 0x36
 75.0716465186 47.5335057632 71 39 57 36 c 0
 30 29 12 35 12 11 c 0
 12 1 18 -6 28 -6 c 0
 31 -6 74 0 130 0 c 0
 184 0 228 -6 231 -6 c 0
 244 -6 245 6 245 14 c 0
 245 37 232 33 172 38 c 0
 148 40 147.094824063 57.0004087168 147 68 c 0
 145.189655172 278 211.352327798 398 314 398 c 0
 343.897460938 398 371.52242766 380.409833296 372 343 c 2
 375 108 l 2
 374 -150 l 2
 373.937985428 -165.999759633 373 -184 345 -190 c 0
 308 -197 290 -197 290 -217 c 0
 290 -228 297 -235 308 -235 c 0xb6
 312 -235 367 -223 443 -223 c 0
 476 -223 492 -225 498 -225 c 0
 512 -225 516 -212 516 -203 c 0
 516 -195 511 -191 502 -189 c 0
 463 -184 447 -183 447 -139 c 2
 447 364 l 2
 447 373 446 382 446 391 c 0
 446 434 444 446 435 446 c 0
 424 446 426 421 397 421 c 0x6e
 383 421 370 433 332 433 c 0
 76.0740986388 433 74.5747126437 134 75 60 c 0x36
EndSplineSet
EndChar

StartChar: dy
Encoding: 37 60817 49
Width: 505
GlyphClass: 2
Flags: W
HStem: -235 45<272.501 352.591> -225 36<434.956 497.684> 29 5<256 350> 377 38<7.08487 63.9033 277.108 356.564>
VStem: 64 68<95.1389 204 349 375.136> 358 71<-182.941 -139 22 28.9979 65.7898 100 346 373.706>
AnchorPoint: "Top" 222 619 basechar 0
AnchorPoint: "Bottom" 221 0 basechar 0
LayerCount: 2
Back
SplineSet
241 401 m 0x3c
 147 401 70 327 70 233 c 0
 70 131 156 52 255 52 c 0
 292 52 335 66 348 78 c 0
 356 86 357 96 357 108 c 0
 357 131 357 155 354 343 c 0
 354 358 351 364 340 372 c 0
 311 391 276 401 241 401 c 0x3c
-2 213 m 0
 -2 308 68 434 265 434 c 0
 327 434 365 421 379 421 c 0
 408 421 406 446 417 446 c 0
 426 446 428 434 428 391 c 0
 428 382 429 373 429 364 c 6
 429 -139 l 6
 429 -183 445 -184 484 -189 c 4
 493 -191 498 -195 498 -203 c 4
 498 -212 494 -225 480 -225 c 4x7c
 474 -225 458 -223 425 -223 c 4
 349 -223 294 -235 290 -235 c 4
 279 -235 272 -228 272 -217 c 4
 272 -197 290 -197 327 -190 c 4xbc
 355 -184 356 -166 356 -150 c 6
 356 22 l 6
 356 26 354 29 350 29 c 4
 341 29 301 -9 221 -9 c 0
 100 -9 -2 90 -2 213 c 0
EndSplineSet
Fore
SplineSet
350 29 m 3x7c
 354.608240384 29 356 26.0972880528 356 22 c 2
 356 -150 l 6
 356 -166 355 -184 327 -190 c 4
 290 -197 272 -197 272 -217 c 4
 272 -228 279 -235 290 -235 c 4xbc
 294 -235 349 -223 425 -223 c 4
 458 -223 474 -225 480 -225 c 4
 494 -225 498 -212 498 -203 c 4
 498 -195 493 -191 484 -189 c 4
 445 -184 429 -183 429 -139 c 6
 429 399 l 2
 429 409 428 419 414 419 c 0
 401 419 389 418 291 415 c 0
 283 414 277 411 277 398 c 0
 277 388 282 384 292 382 c 0
 343 373 358 374 358 346 c 2
 358 100 l 2
 358 88 356 87 341 70 c 0
 323 52 294 34 256 34 c 0
 203 34 166 70 150 101 c 0
 132 137 132 174 132 204 c 2
 132 409 l 2
 132 416 130 421 122 421 c 0
 112 421 101 420 18 415 c 0
 8 414 7 408 7 401 c 2
 7 398 l 2
 7 381 20 385 38 377 c 0
 65 367 65 358 65 349 c 0
 65 333 64 220 64 188 c 0
 64 167 65 147 67 127 c 0
 79 35 139.000691894 -18.3347930873 220 -18 c 0
 304.101727625 -17.6523837339 336.712588818 29 350 29 c 3x7c
EndSplineSet
EndChar

StartChar: gy
Encoding: 38 60818 50
Width: 505
GlyphClass: 2
Flags: W
HStem: -235 45<288.501 367.654> -225 36<446.138 508.684> -6 42<21.0267 80.623> 377 38<29.0849 85.9033 288.108 357.807>
VStem: 87 67<62.0063 374.674> 369 71<-182.941 -139 258 262.034 302.231 340 346 365.896>
AnchorPoint: "Top" 271.222 619 basechar 0
AnchorPoint: "Bottom" 264 0 basechar 0
LayerCount: 2
Fore
SplineSet
440 399 m 17x7c
 440 409 439 419 425 419 c 0
 412 419 400 418 302 415 c 0
 294 414 288 411 288 398 c 0
 288 388 293 384 303 382 c 0
 354 373 369 346 369 346 c 2
 369 340 l 2
 369 311.906454679 186.015625 90.9228515625 154 62 c 1
 154 62 154 403 154 409 c 0
 154 416 152 421 144 421 c 0
 134 421 123 420 40 415 c 0
 30 414 29 408 29 401 c 2
 29 398 l 2
 29 381 42 385 60 377 c 0
 87 367 87 358 87 349 c 0
 87 345 l 2
 87 269.564329412 85 161 82 70 c 0
 81 56 81 40 58 36 c 0
 30 30 21 31 21 14 c 0
 21 5 21 -6 33 -6 c 0
 36 -6 76 0 127 0 c 0
 142 0 164 1.0244140625 173 10 c 0
 242.557617188 79.3720703125 345.976881934 227.39170797 370 262 c 0
 370.57037958 262.821702787 373 258 373 258 c 1
 372 -150 l 2
 372 -166 371 -184 343 -190 c 0
 306 -197 288 -197 288 -217 c 0
 288 -228 295 -235 306 -235 c 0xbc
 310 -235 360 -223 436 -223 c 0
 469 -223 485 -225 491 -225 c 0
 505 -225 509 -212 509 -203 c 0
 509 -195 504 -191 495 -189 c 0
 456 -184 440.409179688 -182.99609375 440 -139 c 2
 440 399 l 17x7c
293 408 m 1026
394 416 m 1024
EndSplineSet
EndChar

StartChar: vy
Encoding: 39 60819 51
Width: 361
GlyphClass: 2
Flags: W
HStem: -6 44<78.136 153.058 223.719 288.991> 355 62<83.8823 234.993>
VStem: 39 35<294.02 354.03> 154 67<39.1511 234.786>
AnchorPoint: "Top" 196 619 basechar 0
AnchorPoint: "Bottom" 203 0 basechar 0
LayerCount: 2
Back
SplineSet
154 121 m 6xd0
 154 237 155 295 155 314 c 4
 155 330 151 329 87 355 c 4
 82 357 75 360 75 368 c 4
 75 380 91 384 102 389 c 4
 206 439 207 441 212 441 c 6
 213 441 l 6
 219 441 227 437 227 425 c 4
 227 417 221 320 221 198 c 6
 221 165 l 6
 221 43 222 40 244 37 c 4
 277 32 289 33 289 16 c 4
 289 8 288 -6 277 -6 c 4
 274 -6 234 0 185 0 c 4
 135 0 96 -6 93 -6 c 4
 83 -6 78 1 78 11 c 4
 78 34 82 32 127 38 c 4
 152 42 154 56 154 74 c 6
 154 121 l 6xd0
65 454 m 6xf0
 71 454 l 6
 94 454 74 417 99 417 c 6
 317 417 l 6
 329 417 339 413 339 402 c 4
 339 396 335 392 333 388 c 4
 107 81 106 83 106 76 c 4
 106 66 114 65 122 65 c 6
 267 65 l 6
 273 65 279 64 282 64 c 4
 301 64 299 74 309 125 c 4
 310 128 312 141 326 141 c 4
 333 141 350 138 350 124 c 4xe8
 350 120 337 61 337 -19 c 4
 337 -51 338 -67 338 -73 c 4
 338 -88 328 -93 308 -93 c 4
 294 -93 291 -85 291 -75 c 6
 291 -15 l 6
 291 -1 283 0 274 0 c 6
 42 0 l 6
 16 0 12 14 12 23 c 4
 12 35 20 45 25 53 c 6
 229 328 l 6
 232 331 235 336 235 341 c 4
 235 352 225 355 215 355 c 6
 96 355 l 6
 82 355 83 349 74 310 c 4
 73 307 71 294 57 294 c 4
 52 294 39 297 39 307 c 4
 39 310 49 351 49 409 c 6
 49 439 l 6
 49 451 57 454 65 454 c 6xf0
EndSplineSet
Fore
SplineSet
154 131 m 2
 154 210 166.804878049 226 229 328 c 0
 231.046462162 331.356197946 235 336 235 341 c 0
 235 352 225 355 215 355 c 2
 96 355 l 2
 82 355 83 349 74 310 c 0
 73 307 71 294 57 294 c 0
 52 294 39 297 39 307 c 0
 39 310 49 351 49 409 c 2
 49 439 l 2
 49 451 57 454 65 454 c 2
 71 454 l 2
 94 454 74 417 99 417 c 2
 317 417 l 2
 329 417 339 413 339 402 c 0
 339 396 335.744846282 391.530696657 333 388 c 0
 253.70281081 286 221 208.372070312 221 168 c 0
 221 165 l 2
 221 43 222 40 244 37 c 0
 277 32 289 33 289 16 c 0
 289 8 288 -6 277 -6 c 0
 274 -6 234 0 185 0 c 0
 135 0 96 -6 93 -6 c 0
 83 -6 78 1 78 11 c 0
 78 34 82 32 127 38 c 0
 152 42 154 56 154 74 c 2
 154 131 l 2
EndSplineSet
EndChar

StartChar: zy
Encoding: 41 60821 53
Width: 494
GlyphClass: 2
Flags: W
HStem: -228 46<13.3345 91.7562> -7 34<182.8 315.77> 372 59<202.202 322.789>
VStem: 93 73<-177.901 -1.00293> 93 65<45.2268 333.699> 408 67<117.256 282.885>
AnchorPoint: "Top" 268 619 basechar 0
AnchorPoint: "Bottom" 341 0 basechar 0
LayerCount: 2
Fore
SplineSet
250 27 m 0xec
 331 27 408 95 408 195 c 0
 408 292 333 372 253 372 c 0
 240 372 213 371 187 351 c 0
 165 335 158 318 158 289 c 2
 158 74 l 2
 158 65 158 55 184 43 c 0
 204 33 227 27 250 27 c 0xec
286 431 m 0
 397 431 475 331 475 215 c 0
 475 82 376 -7 237 -7 c 0
 203 -7 175 -1 173 -1 c 0
 167 -1 166 -5 166 -12 c 2
 166 -149 l 1
 166 -152 l 2
 166 -162 167 -176 188 -178 c 0
 248 -184 268 -178 268 -209 c 0
 268 -217 265 -224 256 -224 c 0
 247 -224 218 -220 162 -220 c 0
 89 -220 34 -228 29 -228 c 0
 23 -228 13 -225 13 -208 c 0
 13 -190 25 -192 71 -182 c 0
 87 -179 93 -171 93 -154 c 2xf4
 93 308 l 1
 93 310 l 2
 93 315 92 325 80 330 c 0
 15 359 13 358 13 365 c 2
 13 366 l 2
 13 372 15 371 120 433 c 0
 130 438 132 441 137 441 c 0
 143 441 145 436 145 430 c 2
 145 371 l 2
 145 368 146 365 148 365 c 0
 153 365 185 419 263 430 c 0
 271 431 278 431 286 431 c 0
EndSplineSet
EndChar

StartChar: jy
Encoding: 42 60822 54
Width: 505
GlyphClass: 2
Flags: W
HStem: -228 46<-15.6655 62.7562> -14 21G<370 378> 377 38<7.08487 63.9033 277.108 356.564>
VStem: 64 73<-177.994 4.97579 87.7393 375.136> 358 71<69.1563 373.706>
AnchorPoint: "Top" 228 619 basechar 0
AnchorPoint: "Bottom" 348 0 basechar 0
LayerCount: 2
Back
SplineSet
221 27 m 0xf4
 302 27 379 95 379 195 c 0
 379 292 304 372 224 372 c 0
 211 372 184 371 158 351 c 0
 136 335 129 318 129 289 c 2
 129 74 l 2
 129 65 129 55 155 43 c 0
 175 33 198 27 221 27 c 0xf4
257 431 m 0
 368 431 446 331 446 215 c 0
 446 82 347 -7 208 -7 c 0
 174 -7 146 -1 144 -1 c 0
 138 -1 137 -5 137 -12 c 2
 137 -149 l 5
 137 -152 l 6
 137 -162 138 -176 159 -178 c 4
 219 -184 239 -178 239 -209 c 4
 239 -217 236 -224 227 -224 c 4
 218 -224 189 -220 133 -220 c 4
 60 -220 5 -228 0 -228 c 4
 -6 -228 -16 -225 -16 -208 c 4
 -16 -190 -4 -192 42 -182 c 4
 58 -179 64 -171 64 -154 c 6xec
 64 308 l 1
 64 310 l 2
 64 315 63 325 51 330 c 0
 -14 359 -16 358 -16 365 c 2
 -16 366 l 2
 -16 372 -14 371 91 433 c 0
 101 438 103 441 108 441 c 0
 114 441 116 436 116 430 c 2
 116 371 l 2
 116 368 117 365 119 365 c 0
 124 365 156 419 234 430 c 0
 242 431 249 431 257 431 c 0
EndSplineSet
Fore
SplineSet
137 -149 m 1
 137 -152 l 2
 137 -162 138 -176 159 -178 c 0
 219 -184 239 -178 239 -209 c 0
 239 -217 236 -224 227 -224 c 0
 218 -224 189 -220 133 -220 c 0
 60 -220 5 -228 0 -228 c 0
 -6 -228 -16 -225 -16 -208 c 0
 -16 -190 -4 -192 42 -182 c 0
 57.907278719 -178.541895931 64 -171 64 -154 c 0
 64 188 l 0
 64 220 65 333 65 349 c 4
 65 358 65 367 38 377 c 4
 20 385 7 381 7 398 c 6
 7 401 l 6
 7 408 8 414 18 415 c 4
 101 420 112 421 122 421 c 4
 130 421 132 416 132 409 c 6
 132 204 l 2
 132 174 132 137 150 101 c 0
 166 70 203 34 256 34 c 0
 294 34 323 52 341 70 c 0
 356 87 358 88 358 100 c 2
 358 346 l 2
 358 374 343 373 292 382 c 0
 282 384 277 388 277 398 c 0
 277 411 283 414 291 415 c 0
 389 418 401 419 414 419 c 0
 428 419 429 409 429 399 c 2
 429 86 l 2
 429 74 435 77 479 56 c 0
 486 53 487 50 487 44 c 0
 487 14 473 37 387 -10 c 0
 384 -12 380 -14 376 -14 c 0
 364 -14 362 -4 362 6 c 2
 362 29 l 2
 362 33 360 33 359 33 c 0
 354 33 303 -18 220 -18 c 0
 188.671063992 -18 160.483653188 -10.0713887725 137 4.97578724573 c 1
 137 -149 l 1
EndSplineSet
EndChar

StartChar: ny
Encoding: 43 60823 55
Width: 391
GlyphClass: 2
Flags: W
HStem: -18 64<134.185 291.769> 355 62<83.8823 216.993>
VStem: 39 70<71.3819 180.62> 39 35<294.02 354.03>
AnchorPoint: "Top" 209 619 basechar 0
AnchorPoint: "Bottom" 197 0 basechar 0
LayerCount: 2
Back
SplineSet
219 -18 m 0
 104 -18 27 74 27 197 c 0
 27 333 113 428 241 428 c 0
 313 428 368 392 368 354 c 0
 368 331 349 316 328 316 c 0
 282 316 265 376 207 376 c 0
 146 376 93 306 93 222 c 0
 93 129 159 46 251 46 c 0
 329 46 350 100 373 100 c 0
 382 100 390 93 390 83 c 0
 390 77 387 71 384 67 c 0
 352 23 294 -18 219 -18 c 0
EndSplineSet
Fore
SplineSet
217 341 m 0xe0
 217 352 207 355 197 355 c 2
 96 355 l 2
 82 355 83 349 74 310 c 0
 73 307 71 294 57 294 c 0
 52 294 39 297 39 307 c 0xd0
 39 310 49 351 49 409 c 2
 49 439 l 2
 49 451 57 454 65 454 c 2
 71 454 l 2
 94 454 74 417 99 417 c 2
 347 417 l 2
 359 417 369 413 369 402 c 0
 369 396 363 388 363 388 c 1
 363 388 109 216.0234375 109 131 c 3
 109 54.974609375 166 46 212 46 c 0
 281 46 350 100 373 100 c 0
 382 100 390 93 390 83 c 0
 390 77 387.15625 70.8779296875 384 67 c 0
 349 24 265 -18 200 -18 c 0
 90 -18 35 32.9892578125 35 121 c 3
 35 229.810546875 217 321.174804688 217 341 c 0xe0
EndSplineSet
EndChar

StartChar: bahebu
Encoding: 44 60824 56
Width: 0
VWidth: 0
GlyphClass: 4
Flags: W
HStem: -194 124<-309.03 -214.583>
VStem: -323 123<-179.661 -84.3391>
AnchorPoint: "Bottom" -262 0 mark 0
LayerCount: 2
Fore
SplineSet
-323 -132 m 4
 -323 -123 -322 -116 -319 -108 c 4
 -316 -100 -311 -94 -306 -88 c 4
 -301 -82 -294 -78 -286 -75 c 4
 -278 -72 -271 -70 -262 -70 c 260
 -253 -70 -246 -72 -238 -75 c 4
 -230 -78 -224 -82 -218 -88 c 4
 -212 -94 -208 -100 -205 -108 c 4
 -202 -116 -200 -123 -200 -132 c 4
 -200 -141 -202 -149 -205 -156 c 4
 -208 -163 -212 -170 -218 -176 c 4
 -224 -182 -230 -186 -238 -189 c 4
 -246 -192 -253 -194 -262 -194 c 260
 -271 -194 -278 -192 -286 -189 c 4
 -294 -186 -301 -182 -306 -176 c 4
 -311 -170 -316 -163 -319 -156 c 4
 -322 -149 -323 -141 -323 -132 c 4
EndSplineSet
EndChar

StartChar: smajibu
Encoding: 45 60825 57
Width: 416
VWidth: 988
GlyphClass: 2
Flags: W
HStem: 224 74<70 343>
VStem: 70 273<224 298>
LayerCount: 2
Fore
SplineSet
70 298 m 1
 343 298 l 1
 343 224 l 1
 70 224 l 1
 70 298 l 1
EndSplineSet
Substitution2: "Single Substitution lookup 60 subtable" smajibu.fina
Substitution2: "Single Substitution lookup 59 subtable" smajibu.fina
Substitution2: "Single Substitution lookup 58 subtable" smajibu.fina
Substitution2: "Single Substitution lookup 56 subtable" smajibu.medi
Substitution2: "Single Substitution lookup 55 subtable" smajibu.medi
Substitution2: "Single Substitution lookup 54 subtable" smajibu.medi
Substitution2: "Single Substitution lookup 53 subtable" smajibu.medi
Substitution2: "Single Substitution lookup 52 subtable" smajibu.medi
Substitution2: "Single Substitution lookup 51 subtable" smajibu.medi
Substitution2: "Single Substitution lookup 49 subtable" smajibu.init
Substitution2: "Single Substitution lookup 48 subtable" smajibu.init
Substitution2: "Single Substitution lookup 47 subtable" smajibu.init
EndChar

StartChar: tcenabu
Encoding: 47 60827 59
Width: 0
VWidth: 988
GlyphClass: 4
Flags: W
HStem: -169 74<-528 2>
AnchorPoint: "Bottom" -263 0 mark 0
LayerCount: 2
Fore
SplineSet
-528 -95 m 1
 2 -95 l 1
 2 -169 l 1
 -528 -169 l 1
 -528 -95 l 1
EndSplineSet
EndChar

StartChar: abu
Encoding: 52 60832 64
Width: 227
GlyphClass: 4
Flags: W
VStem: -39 77.7236
AnchorPoint: "Top" 0 657 mark 0
LayerCount: 2
Fore
SplineSet
-24.267578125 825.616210938 m 4
 -9.0234375 838.563476562 13.6435546875 838.134765625 27.8857421875 821.3671875 c 4
 39.5380859375 807.647460938 39.5693359375 790.618164062 38.7236328125 771.53125 c 4
 34.087890625 705.930664062 24.6279296875 581.12890625 23.40625 574.842773438 c 4
 22.2998046875 569.966796875 19.783203125 565.206054688 15.2099609375 561.322265625 c 4
 6.0634765625 553.553710938 -5.7451171875 556.64453125 -12.21875 564.266601562 c 4
 -20.6337890625 574.174804688 -19.109375 575.469726562 -39 758 c 4
 -41.203125 774.497070312 -46.37109375 806.842773438 -24.267578125 825.616210938 c 4
EndSplineSet
MultipleSubs2: "Multiple Substitution lookup 62 subtable" denpabu abu
EndChar

StartChar: ebu
Encoding: 53 60833 65
Width: 227
GlyphClass: 4
Flags: WO
HStem: 632 49<-133.453 133.491> 634.375 35.625<-136.762 136.812>
AnchorPoint: "Top" 0 657 mark 0
LayerCount: 2
Fore
SplineSet
0 632 m 27x80
 -48 632 -117.178845872 632.957903087 -123.423828125 634.375 c 0
 -128.299804688 635.481445312 -133.060546875 637.998046875 -136.944335938 642.571289062 c 0
 -144.712890625 651.717773438 -141.622070312 663.526367188 -134 670 c 0x40
 -124.091929542 678.415195267 0 681 0 681 c 24x80
 58.2151183113 681 124 678 134 670 c 0x40
 141.808688094 663.753049524 145 652 137 643 c 0
 133 638 128.029641866 634.838273644 123 634 c 0
 117 633 48 632 0 632 c 27x80
EndSplineSet
MultipleSubs2: "Multiple Substitution lookup 63 subtable" denpabu ebu
EndChar

StartChar: ibu
Encoding: 54 60834 66
Width: 0
GlyphClass: 4
Flags: W
HStem: 571 94<-39.9844 39.668>
VStem: -48 96<579.642 656.984>
AnchorPoint: "Top" 0 619 mark 0
LayerCount: 2
Fore
SplineSet
-48 618 m 0
 -48 644 -26 665 0 665 c 0
 26 665 48 644 48 619 c 0
 48 595.530273799 30.6213373073 576.594111778 9.00000081533 572.043505609 c 0
 5.74775845593 571.359011653 2.39952291746 571 -1 571 c 0
 -27 571 -48 591 -48 618 c 0
EndSplineSet
MultipleSubs2: "Multiple Substitution lookup 64 subtable" denpabu ibu
Substitution2: "Single Substitution lookup 33 subtable" iy
Substitution2: "Single Substitution lookup 32 subtable" iy
Substitution2: "Single Substitution lookup 31 subtable" iy
Substitution2: "Single Substitution lookup 30 subtable" iy
Substitution2: "Single Substitution lookup 29 subtable" iy
Substitution2: "Single Substitution lookup 28 subtable" iy
Substitution2: "Single Substitution lookup 27 subtable" iy
Substitution2: "Single Substitution lookup 26 subtable" iy
Substitution2: "Single Substitution lookup 25 subtable" iy
Substitution2: "Single Substitution lookup 24 subtable" iy
Substitution2: "Single Substitution lookup 13 subtable" iy
Substitution2: "Single Substitution lookup 12 subtable" iy
Substitution2: "Single Substitution lookup 11 subtable" iy
Substitution2: "Single Substitution lookup 10 subtable" iy
Substitution2: "Single Substitution lookup 9 subtable" iy
Substitution2: "Single Substitution lookup 8 subtable" iy
Substitution2: "Single Substitution lookup 7 subtable" iy
Substitution2: "Single Substitution lookup 6 subtable" iy
Substitution2: "Single Substitution lookup 5 subtable" iy
Substitution2: "Single Substitution lookup 4 subtable" iy
EndChar

StartChar: obu
Encoding: 55 60835 67
Width: 0
GlyphClass: 4
Flags: W
HStem: 596 54<-9.17957 87.6756> 641 52<-113.837 -29.4311>
VStem: -160 304
AnchorPoint: "Top" 0 657 mark 0
LayerCount: 2
Fore
SplineSet
47 650 m 0xa0
 93 650 113 696 125 696 c 0
 129 696 144 690 144 683 c 0
 144 675 112 636 88 618 c 0
 74 607 54 596 30 596 c 0xa0
 -21 596 -37 641 -77 641 c 0
 -121 641 -139 589 -147 589 c 0
 -151 589 -160 599 -160 604 c 0
 -160 608 -129 656 -115 670 c 0
 -103 682 -88 693 -65 693 c 0x60
 -20 693 2 650 47 650 c 0xa0
EndSplineSet
MultipleSubs2: "Multiple Substitution lookup 65 subtable" denpabu obu
EndChar

StartChar: ubu
Encoding: 56 60836 68
Width: 0
GlyphClass: 4
Flags: W
HStem: 569 68<-48.1707 50.5139>
VStem: -117 57<652.065 718.344>
AnchorPoint: "Top" 0 657 mark 0
LayerCount: 2
Fore
SplineSet
-117 721 m 2
 -117 729 -103 731 -95 731 c 0
 -76 731 -89 710 -60 671 c 0
 -44 651 -24 637 0 637 c 2
 1 637 l 2
 61 637 91 717 95 723 c 0
 97 726 100 730 107 730 c 0
 115 730 125 729 125 723 c 0
 125 715 95 569 -4 569 c 0
 -49 569 -97 599 -117 718 c 1
 -117 721 l 2
EndSplineSet
MultipleSubs2: "Multiple Substitution lookup 66 subtable" denpabu ubu
Substitution2: "Single Substitution lookup 43 subtable" uy
Substitution2: "Single Substitution lookup 42 subtable" uy
Substitution2: "Single Substitution lookup 41 subtable" uy
Substitution2: "Single Substitution lookup 40 subtable" uy
Substitution2: "Single Substitution lookup 39 subtable" uy
Substitution2: "Single Substitution lookup 38 subtable" uy
Substitution2: "Single Substitution lookup 37 subtable" uy
Substitution2: "Single Substitution lookup 36 subtable" uy
Substitution2: "Single Substitution lookup 35 subtable" uy
Substitution2: "Single Substitution lookup 34 subtable" uy
Substitution2: "Single Substitution lookup 23 subtable" uy
Substitution2: "Single Substitution lookup 22 subtable" uy
Substitution2: "Single Substitution lookup 21 subtable" uy
Substitution2: "Single Substitution lookup 20 subtable" uy
Substitution2: "Single Substitution lookup 19 subtable" uy
Substitution2: "Single Substitution lookup 18 subtable" uy
Substitution2: "Single Substitution lookup 17 subtable" uy
Substitution2: "Single Substitution lookup 16 subtable" uy
Substitution2: "Single Substitution lookup 15 subtable" uy
Substitution2: "Single Substitution lookup 14 subtable" uy
EndChar

StartChar: ybu
Encoding: 57 60837 69
Width: 0
GlyphClass: 4
Flags: W
HStem: 569 39<-34.9737 35.7112> 707 38<-34.6733 35.2088>
VStem: -85 40<617.079 697.575> 46 39<616.969 696.702>
AnchorPoint: "Top" 0 657 mark 0
LayerCount: 2
Fore
SplineSet
0 745 m 0
 48 745 85 704 85 657 c 0
 85 608 47 569 0 569 c 0
 -46 569 -85 608 -85 657 c 0
 -85 705 -46 745 0 745 c 0
0 707 m 0
 -25 707 -45 684 -45 658 c 0
 -45 631 -25 608 1 608 c 0
 28 608 46 633 46 657 c 0
 46 682 26 707 0 707 c 0
EndSplineSet
MultipleSubs2: "Multiple Substitution lookup 67 subtable" denpabu ybu
EndChar

StartChar: aibu
Encoding: 58 60838 70
Width: 0
VWidth: 0
GlyphClass: 4
Flags: W
HStem: 569 39<-42 4.33428> 738 38<14.418 61>
VStem: -44 57<681.222 734.463> 6 58<611.127 667.254>
AnchorPoint: "Top" 0 657 mark 0
LayerCount: 2
Fore
SplineSet
13 711 m 0xe0
 13 705 16 699 21 694 c 0
 22 693 28 687 41 676 c 0
 47 670 52 663 57 656 c 0
 62 649 64 641 64 632 c 0
 64 623 61 615 56 607 c 0
 39 582 7 569 -42 569 c 1
 -42 608 l 1
 -10 608 6 618 6 635 c 0xd0
 6 640 4 646 -1 652 c 0
 -6 658 -12 664 -19 670 c 0
 -26 676 -32 683 -37 690 c 0
 -42 697 -44 705 -44 714 c 0
 -44 723 -42 731 -37 739 c 0
 -21 764 12 776 61 776 c 1
 61 738 l 1
 29 737 13 728 13 711 c 0xe0
EndSplineSet
MultipleSubs2: "Multiple Substitution lookup 68 subtable" denpabu aibu
Ligature2: "zlmVV subtable" abu ibu
LCarets2: 1 0
EndChar

StartChar: eibu
Encoding: 59 60839 71
Width: 0
VWidth: 0
GlyphClass: 4
Flags: W
HStem: 649 46<-49.5944 49.5944>
VStem: -108 50<588 639.781> 58 50<588 639.781>
AnchorPoint: "Top" 0 657 mark 0
LayerCount: 2
Fore
SplineSet
0 695 m 4
 20 695 37 692 51 686 c 4
 65 680 75 673 84 663 c 4
 93 653 99 643 103 630 c 4
 107 617 108 602 108 588 c 5
 58 588 l 5
 58 597 58 605 56 613 c 4
 54 621 50 627 46 632 c 4
 42 637 36 641 28 644 c 4
 20 647 11 649 0 649 c 260
 -11 649 -20 647 -28 644 c 4
 -36 641 -42 637 -46 632 c 4
 -50 627 -54 621 -56 613 c 4
 -58 605 -58 597 -58 588 c 5
 -108 588 l 5
 -108 602 -107 617 -103 630 c 4
 -99 643 -93 653 -84 663 c 4
 -75 673 -65 680 -51 686 c 4
 -37 692 -20 695 0 695 c 4
EndSplineSet
MultipleSubs2: "Multiple Substitution lookup 69 subtable" denpabu eibu
Ligature2: "zlmVV subtable" ebu ibu
LCarets2: 1 0
EndChar

StartChar: oibu
Encoding: 60 60840 72
Width: 0
VWidth: 988
GlyphClass: 4
Flags: W
HStem: 578 201
VStem: -117 49<580 623.605> 61 39<636.19 683>
AnchorPoint: "Top" 0 657 mark 0
LayerCount: 2
Fore
SplineSet
-49 663 m 1
 -18 693 6 644 34 636 c 0
 54 631 60 661 61 683 c 1
 100 683 l 1
 99 640 88 603 62 586 c 0
 54 581 46 578 37 578 c 0
 18 578 4 592 -7 601 c 0
 -16 609 -29 624 -42 624 c 0
 -59 624 -68 609 -68 580 c 1
 -117 580 l 1
 -118 643 -72 726 -32 779 c 1
 7 750 l 1
 -14 721 -36 685 -49 663 c 1
EndSplineSet
MultipleSubs2: "Multiple Substitution lookup 70 subtable" denpabu oibu
Ligature2: "zlmVV subtable" obu ibu
LCarets2: 1 0
EndChar

StartChar: aubu
Encoding: 61 60841 73
Width: 0
GlyphClass: 4
Flags: W
HStem: 669 98<-61.7249 30.9082>
VStem: 35 40<588.811 663.483>
AnchorPoint: "Top" 0 658 mark 0
LayerCount: 2
Fore
SplineSet
-12 767 m 0
 23 767 75 739 75 655 c 0
 75 575 33 545 18 545 c 0
 7 545 -1 554 -1 564 c 0
 -1 580 35 595 35 632 c 0
 35 646 27 669 -8 669 c 0
 -14 669 -20 668 -26 668 c 0
 -66 668 -75 695 -75 711 c 0
 -75 736 -53 767 -12 767 c 0
EndSplineSet
MultipleSubs2: "Multiple Substitution lookup 71 subtable" denpabu aubu
Ligature2: "zlmVV subtable" abu ubu
LCarets2: 1 0
EndChar

StartChar: uy
Encoding: 63 60843 75
Width: 490
GlyphClass: 2
Flags: W
HStem: 374 41<143.006 218.984 298.064 371.985>
VStem: 2 141<349.5 406> 372 113<351 401>
AnchorPoint: "Bottom" 256 0 basechar 0
AnchorPoint: "Top" 256 658 basechar 0
LayerCount: 2
Fore
SplineSet
298 396 m 2
 298 401 l 2
 298 408 301 415 310 415 c 0
 318 415 342 412 390 412 c 0
 438 412 462 415 470 415 c 0
 482 415 485 406 485 396 c 0
 485 363 443 388 430 366 c 0
 427 360 427 358 424 346 c 0
 372 157 291 -3 279 -16 c 0
 275 -21 268 -25 260 -25 c 0
 245 -25 236 -11 227 6 c 0
 99 233 63 345 49 363 c 0
 29 388 2 363 2 402 c 0
 2 410 6 415 14 415 c 0
 24 415 52 412 109 412 c 0
 167 412 195 415 205 415 c 0
 217 415 219 406 219 395 c 0
 219 370 197 380 163 374 c 0
 151 373 143 366 143 356 c 0
 143 343 191 209 262 87 c 0
 263 86 266 79 271 79 c 0
 274 79 276 83 276 84 c 0
 352 217 372 343 372 359 c 0
 372 378 351 376 313 379 c 0
 308 380 298 380 298 396 c 2
EndSplineSet
EndChar

StartChar: uniEDAC
Encoding: 272 60844 76
Width: 446
VWidth: 988
GlyphClass: 2
Flags: W
HStem: 0 69<132 406> 730 20G<188.958 277>
VStem: 188 89<212.256 750>
AnchorPoint: "Top" 230 659 basechar 0
AnchorPoint: "Bottom" 228 0 basechar 0
LayerCount: 2
Fore
SplineSet
132 69 m 0
 406 69 l 1
 406 0 l 1
 29 0 l 1
 29 37 l 2
 29 48 30.0631501485 53.8825866241 32 55 c 0
 136 115 187.874648581 218.83413022 188 278 c 2
 189 750 l 0
 277 750 l 1
 277 324 l 2
 277 256.750789571 242 140 174 83 c 0
 132 69 l 0
EndSplineSet
EndChar

StartChar: seplimeabu
Encoding: 68 60848 80
Width: 548
VWidth: 988
GlyphClass: 3
Flags: W
HStem: 0 21G<70 155> 429 71<155 487>
VStem: 70 85<0 429>
AnchorPoint: "Bottom" 305 0 basechar 0
LayerCount: 2
Fore
SplineSet
487 429 m 1
 155 429 l 1
 155 0 l 1
 70 0 l 1
 70 500 l 1
 487 500 l 1
 487 429 l 1
EndSplineSet
Ligature2: "zlmSF subtable" slakabu seplimeabu
LCarets2: 1 0
EndChar

StartChar: seplimeebu
Encoding: 69 60849 81
Width: 548
VWidth: 988
GlyphClass: 3
Flags: W
HStem: 0 21G<70 155> 225 71<155 487> 480 20G<70 155>
VStem: 70 85<0 225 296 500>
AnchorPoint: "Bottom" 307 0 basechar 0
LayerCount: 2
Fore
SplineSet
487 225 m 1
 155 225 l 1
 155 0 l 1
 70 0 l 1
 70 500 l 1
 155 500 l 0
 155 296 l 0
 487 296 l 1
 487 225 l 1
EndSplineSet
Ligature2: "zlmSF subtable" slakabu seplimeebu
EndChar

StartChar: seplimeibu
Encoding: 70 60850 82
Width: 548
VWidth: 988
GlyphClass: 3
Flags: W
HStem: 0 21G<70 155 402 487> 429 71<155 402>
VStem: 70 85<0 429> 402 85<0 429>
AnchorPoint: "Bottom" 285 0 basechar 0
LayerCount: 2
Fore
SplineSet
155 429 m 1
 155 0 l 1
 70 0 l 1
 70 429 l 1
 70 500 l 1
 487 500 l 1
 487 429 l 1
 487 0 l 1
 402 0 l 1
 402 429 l 1
 155 429 l 1
EndSplineSet
Ligature2: "zlmSF subtable" slakabu seplimeibu
EndChar

StartChar: seplimeobu
Encoding: 71 60851 83
Width: 548
VWidth: 988
GlyphClass: 3
Flags: W
HStem: 0 71<70 402> 480 20G<402 487>
VStem: 402 85<71 500>
AnchorPoint: "Bottom" 278 0 basechar 0
LayerCount: 2
Fore
SplineSet
70 71 m 1
 402 71 l 1
 402 500 l 1
 487 500 l 1
 487 0 l 1
 70 0 l 1
 70 71 l 1
EndSplineSet
Ligature2: "zlmSF subtable" slakabu seplimeobu
EndChar

StartChar: seplimeubu
Encoding: 72 60852 84
Width: 548
VWidth: 988
GlyphClass: 3
Flags: W
HStem: 0 71<155 402> 480 20G<70 155 402 487>
VStem: 70 85<71 500> 402 85<71 500>
AnchorPoint: "Bottom" 286 0 basechar 0
LayerCount: 2
Fore
SplineSet
155 71 m 1
 402 71 l 1
 402 500 l 1
 487 500 l 1
 487 71 l 1
 487 0 l 1
 70 0 l 1
 70 71 l 1
 70 500 l 1
 155 500 l 1
 155 71 l 1
EndSplineSet
Ligature2: "zlmSF subtable" slakabu seplimeubu
EndChar

StartChar: seplimeybu
Encoding: 73 60853 85
Width: 548
VWidth: 988
GlyphClass: 3
Flags: W
HStem: 0 21G<234 319> 225 71<70 234 319 487> 480 20G<234 319>
VStem: 234 85<0 224 296 500>
AnchorPoint: "Bottom" 277 0 basechar 0
LayerCount: 2
Fore
SplineSet
487 225 m 1
 319 225 l 1
 319 0 l 1
 234 0 l 1
 234 224 l 0
 70 224 l 0
 70 296 l 0
 234 296 l 0
 234 500 l 1
 319 500 l 0
 319 296 l 0
 487 296 l 1
 487 225 l 1
EndSplineSet
Ligature2: "zlmSF subtable" slakabu seplimeybu
EndChar

StartChar: seplimeaibu
Encoding: 74 60854 86
Width: 548
VWidth: 988
GlyphClass: 3
Flags: W
HStem: 0 71<155 487> 429 71<155 487>
VStem: 70 85<71 429>
AnchorPoint: "LigaBottom" 287 0 basechar 0
LayerCount: 2
Fore
SplineSet
487 71 m 1
 487 0 l 1
 155 0 l 1
 70 0 l 1
 70 500 l 1
 155 500 l 1
 487 500 l 1
 487 429 l 1
 155 429 l 1
 155 71 l 1
 487 71 l 1
EndSplineSet
Ligature2: "zlmSFF subtable" slakabu seplimeaibu
Ligature2: "zlmFF subtable" seplimeabu seplimeibu
EndChar

StartChar: seplimeeibu
Encoding: 75 60855 87
Width: 427
VWidth: 988
GlyphClass: 3
Flags: W
HStem: -8 63<122.13 277.939> 443 65<156.164 311.026>
VStem: 46 84<327.196 417.268> 307 82<83.229 182.832>
AnchorPoint: "Bottom" 225 0 basechar 0
LayerCount: 2
Fore
SplineSet
361 418 m 2
 357 411 351 407 343 407 c 0
 338 407 332 409 326 413 c 0
 320 417 312 421 303 425 c 0
 294 429 284 433 271 437 c 0
 258 441 243 443 226 443 c 0
 211 443 198 441 186 437 c 0
 174 433 164 428 156 421 c 0
 148 414 141 407 137 398 c 0
 133 389 130 380 130 370 c 0
 130 357 134 347 141 338 c 0
 148 329 158 322 170 316 c 0
 182 310 197 304 212 299 c 0
 227 294 244 289 260 284 c 0
 276 279 292 273 307 266 c 0
 322 259 337 251 349 241 c 0
 361 231 371 219 378 205 c 0
 385 191 389 173 389 153 c 0
 389 130 385 109 377 89 c 0
 369 69 356 52 340 38 c 0
 324 24 304 12 281 4 c 0
 258 -4 231 -8 200 -8 c 0
 165 -8 133 -2 105 9 c 0
 77 20 53 35 33 53 c 1
 54 86 l 2
 57 90 59 94 63 96 c 0
 67 98 71 100 77 100 c 0
 83 100 89 98 96 93 c 0
 103 88 111 84 120 78 c 0
 129 72 140 67 154 62 c 0
 168 57 185 55 205 55 c 0
 222 55 237 58 250 62 c 0
 263 66 273 72 282 80 c 0
 291 88 297 96 301 106 c 0
 305 116 307 127 307 138 c 0
 307 152 303 163 296 172 c 0
 289 181 278 189 266 195 c 0
 254 201 241 207 225 212 c 0
 209 217 193 222 177 227 c 0
 161 232 145 238 129 245 c 0
 113 252 99 261 87 271 c 0
 75 281 65 294 58 309 c 0
 51 324 46 342 46 363 c 0
 46 382 50 400 58 418 c 0
 66 436 78 452 93 465 c 0
 108 478 127 489 149 497 c 0
 171 505 196 508 224 508 c 0
 257 508 287 503 313 493 c 0
 339 483 362 468 381 450 c 1
 361 418 l 2
EndSplineSet
Ligature2: "zlmSFF subtable" slakabu seplimeeibu
Ligature2: "zlmFF subtable" seplimeebu seplimeibu
EndChar

StartChar: seplimeoibu
Encoding: 76 60856 88
Width: 548
VWidth: 988
GlyphClass: 3
Flags: W
HStem: 0 71<70 402> 429 71<70 402>
VStem: 402 85<71 429>
AnchorPoint: "Bottom" 283 0 basechar 0
LayerCount: 2
Fore
SplineSet
70 71 m 1
 402 71 l 1
 402 429 l 1
 70 429 l 1
 70 500 l 1
 402 500 l 1
 487 500 l 1
 487 0 l 1
 402 0 l 1
 70 0 l 1
 70 71 l 1
EndSplineSet
Ligature2: "zlmSFF subtable" slakabu seplimeoibu
Ligature2: "zlmFF subtable" seplimeobu seplimeibu
EndChar

StartChar: seplimeaubu
Encoding: 77 60857 89
Width: 443
GlyphClass: 3
Flags: W
HStem: -4 42<245.243 306.998 387.004 433.968> -4 30<119.588 175.827> 376 39<11.0516 62.125 150.007 201.163 344.166 422.852>
VStem: 181 68<202.618 231.317>
AnchorPoint: "Bottom" 244 0 basechar 0
LayerCount: 2
Fore
SplineSet
24 415 m 4x70
 32 415 57 412 106 412 c 4
 156 412 181 415 189 415 c 4
 199 415 201 408 201 401 c 6
 201 399 l 6
 201 395 202 393 202 390 c 4
 202 378 195 379 166 376 c 4
 159 375 150 372 150 362 c 4
 150 354 159 345 164 338 c 4
 222 264 220 263 224 263 c 4
 226 263 227 264 229 266 c 4
 290 347 299 358 299 364 c 4
 299 386 250 366 250 390 c 4
 250 407 253 415 263 415 c 4
 270 415 291 412 334 412 c 6
 337 412 l 6
 381 412 403 415 410 415 c 4
 420 415 423 407 423 400 c 4
 423 379 416 380 386 376 c 4
 357 372 350 364 334 345 c 4
 249 233 249 235 249 231 c 4
 249 228 249 229 387 54 c 4
 402 34 404 36 424 32 c 4
 429 31 434 30 434 20 c 4
 434 6 433 -4 419 -4 c 4
 411 -4 387 0 338 0 c 4
 289 0 265 -4 257 -4 c 4
 246 -4 245 5 245 13 c 4
 245 37 266 30 295 38 c 4xb0
 304 41 307 46 307 51 c 4
 307 55 304 59 303 61 c 4
 211 175 212 174 210 176 c 4
 209 176 208 177 207 177 c 4
 202 177 203 176 129 76 c 4
 116 59 115 57 115 51 c 4
 115 26 164 39 174 26 c 4
 176 23 176 19 176 16 c 4
 176 4 174 -4 163 -4 c 4
 156 -4 135 0 91 0 c 4
 48 0 26 -5 19 -5 c 4
 9 -5 9 6 9 16 c 4
 9 42 40 30 55 42 c 4
 59 45 61 49 64 53 c 4
 181 206 181 203 181 209 c 4
 181 212 179 214 177 216 c 4
 41 385 56 372 29 376 c 4
 13 378 11 385 11 398 c 4
 11 413 19 415 24 415 c 4x70
EndSplineSet
LCarets2: 1 0
Ligature2: "zlmSFF subtable" slakabu seplimeaubu
Ligature2: "zlmFF subtable" seplimeabu seplimeubu
EndChar

StartChar: uniEDBC
Encoding: 278 60860 92
Width: 446
VWidth: 988
GlyphClass: 2
Flags: W
HStem: -250 21G<158 246> 431 69<29 302>
VStem: 158 88<-250 260.403>
AnchorPoint: "Top" 208 658 basechar 0
AnchorPoint: "Bottom" 203 0 basechar 0
LayerCount: 2
Fore
SplineSet
302 431 m 0
 29 431 l 1
 29 500 l 1
 406 500 l 1
 406 464 l 2
 406 453 404.936849852 446.117413376 403 445 c 0
 299 385 246 222 246 222 c 2
 246 -250 l 0
 158 -250 l 1
 158 176 l 2
 158 176 192 360 260 417 c 0
 302 431 l 0
EndSplineSet
EndChar

StartChar: bahebu_bahebu
Encoding: 78 -1 96
Width: 0
VWidth: 0
GlyphClass: 4
Flags: W
HStem: -194 124<-403.03 -308.583 -226.03 -131.583>
VStem: -417 123<-179.661 -84.3391> -240 123<-179.661 -84.3391>
AnchorPoint: "Bottom" -267 0 mark 0
LayerCount: 2
Fore
SplineSet
-417 -132 m 4
 -417 -123 -416 -116 -413 -108 c 4
 -410 -100 -405 -94 -400 -88 c 4
 -395 -82 -388 -78 -380 -75 c 4
 -372 -72 -365 -70 -356 -70 c 260
 -347 -70 -340 -72 -332 -75 c 4
 -324 -78 -318 -82 -312 -88 c 4
 -306 -94 -302 -100 -299 -108 c 4
 -296 -116 -294 -123 -294 -132 c 4
 -294 -141 -296 -149 -299 -156 c 4
 -302 -163 -306 -170 -312 -176 c 4
 -318 -182 -324 -186 -332 -189 c 4
 -340 -192 -347 -194 -356 -194 c 260
 -365 -194 -372 -192 -380 -189 c 4
 -388 -186 -395 -182 -400 -176 c 4
 -405 -170 -410 -163 -413 -156 c 4
 -416 -149 -417 -141 -417 -132 c 4
-240 -132 m 4
 -240 -123 -239 -116 -236 -108 c 4
 -233 -100 -228 -94 -223 -88 c 4
 -218 -82 -211 -78 -203 -75 c 4
 -195 -72 -188 -70 -179 -70 c 260
 -170 -70 -163 -72 -155 -75 c 4
 -147 -78 -141 -82 -135 -88 c 4
 -129 -94 -125 -100 -122 -108 c 4
 -119 -116 -117 -123 -117 -132 c 4
 -117 -141 -119 -149 -122 -156 c 4
 -125 -163 -129 -170 -135 -176 c 4
 -141 -182 -147 -186 -155 -189 c 4
 -163 -192 -170 -194 -179 -194 c 260
 -188 -194 -195 -192 -203 -189 c 4
 -211 -186 -218 -182 -223 -176 c 4
 -228 -170 -233 -163 -236 -156 c 4
 -239 -149 -240 -141 -240 -132 c 4
EndSplineSet
Ligature2: "zlmBahebu subtable" bahebu bahebu
LCarets2: 1 0
EndChar

StartChar: bahebu_bahebu_bahebu
Encoding: 79 -1 97
Width: 0
VWidth: 0
GlyphClass: 4
Flags: W
HStem: -313 124<-315.03 -220.583> -189 124<-404.03 -309.583 -227.03 -132.583>
VStem: -418 123<-174.661 -79.3391> -329 123<-298.661 -203.339> -241 123<-174.661 -79.3391>
AnchorPoint: "Bottom" -268 0 mark 0
LayerCount: 2
Fore
SplineSet
-329 -251 m 0x90
 -329 -242 -328 -235 -325 -227 c 0
 -322 -219 -317 -213 -312 -207 c 0
 -307 -201 -300 -197 -292 -194 c 0
 -284 -191 -277 -189 -268 -189 c 256
 -259 -189 -252 -191 -244 -194 c 0
 -236 -197 -230 -201 -224 -207 c 0
 -218 -213 -214 -219 -211 -227 c 0
 -208 -235 -206 -242 -206 -251 c 0
 -206 -260 -208 -268 -211 -275 c 0
 -214 -282 -218 -289 -224 -295 c 0
 -230 -301 -236 -305 -244 -308 c 0
 -252 -311 -259 -313 -268 -313 c 256
 -277 -313 -284 -311 -292 -308 c 0
 -300 -305 -307 -301 -312 -295 c 0
 -317 -289 -322 -282 -325 -275 c 0
 -328 -268 -329 -260 -329 -251 c 0x90
-418 -127 m 0x60
 -418 -118 -417 -111 -414 -103 c 0
 -411 -95 -406 -89 -401 -83 c 0
 -396 -77 -389 -73 -381 -70 c 0
 -373 -67 -366 -65 -357 -65 c 256
 -348 -65 -341 -67 -333 -70 c 0
 -325 -73 -319 -77 -313 -83 c 0
 -307 -89 -303 -95 -300 -103 c 0
 -297 -111 -295 -118 -295 -127 c 0
 -295 -136 -297 -144 -300 -151 c 0
 -303 -158 -307 -165 -313 -171 c 0
 -319 -177 -325 -181 -333 -184 c 0
 -341 -187 -348 -189 -357 -189 c 256
 -366 -189 -373 -187 -381 -184 c 0
 -389 -181 -396 -177 -401 -171 c 0
 -406 -165 -411 -158 -414 -151 c 0
 -417 -144 -418 -136 -418 -127 c 0x60
-241 -127 m 0x48
 -241 -118 -240 -111 -237 -103 c 0
 -234 -95 -229 -89 -224 -83 c 0
 -219 -77 -212 -73 -204 -70 c 0
 -196 -67 -189 -65 -180 -65 c 256
 -171 -65 -164 -67 -156 -70 c 0
 -148 -73 -142 -77 -136 -83 c 0
 -130 -89 -126 -95 -123 -103 c 0
 -120 -111 -118 -118 -118 -127 c 0
 -118 -136 -120 -144 -123 -151 c 0
 -126 -158 -130 -165 -136 -171 c 0
 -142 -177 -148 -181 -156 -184 c 0
 -164 -187 -171 -189 -180 -189 c 256
 -189 -189 -196 -187 -204 -184 c 0
 -212 -181 -219 -177 -224 -171 c 0
 -229 -165 -234 -158 -237 -151 c 0
 -240 -144 -241 -136 -241 -127 c 0x48
EndSplineSet
Ligature2: "zlmBahebu subtable" bahebu bahebu bahebu
LCarets2: 2 0 0
EndChar

StartChar: smajibu.init
Encoding: 48 -1 98
Width: 416
VWidth: 988
GlyphClass: 2
Flags: W
HStem: 224 74<70 427>
LayerCount: 2
Fore
SplineSet
70 298 m 1
 427 298 l 1
 427 224 l 1
 70 224 l 1
 70 298 l 1
EndSplineSet
EndChar

StartChar: smajibu.medi
Encoding: 49 -1 99
Width: 416
VWidth: 988
GlyphClass: 2
Flags: W
HStem: 224 74<-10 427>
LayerCount: 2
Fore
SplineSet
-10 298 m 1
 427 298 l 1
 427 224 l 1
 -10 224 l 1
 -10 298 l 1
EndSplineSet
EndChar

StartChar: smajibu.fina
Encoding: 50 -1 100
Width: 416
VWidth: 988
GlyphClass: 2
Flags: W
HStem: 224 74<-10 343>
LayerCount: 2
Fore
SplineSet
-10 298 m 1
 343 298 l 1
 343 224 l 1
 -10 224 l 1
 -10 298 l 1
EndSplineSet
EndChar

StartChar: denpabu.cas
Encoding: 51 -1 101
Width: 232
VWidth: 988
Flags: W
HStem: 306 87<27.1897 209.657> 480 20G<304 340>
VStem: 18 322
AnchorPoint: "Top" 70 658 basechar 0
AnchorPoint: "Bottom" 111 0 basechar 0
LayerCount: 2
Fore
SplineSet
306 415 m 1
 293 387 267 360 224 335 c 0
 191 316 151 306 102 306 c 0
 86 306 70 308 56 310 c 0
 42 312 29 315 18 320 c 1
 27 386 l 1
 31 395 38 399 50 399 c 0
 57 399 67 398 80 396 c 0
 93 394 108 393 124 393 c 0
 148 393 169 395 187 400 c 0
 205 405 221 412 236 421 c 0
 250 430 264 441 275 454 c 0
 292 474 302 489 306 500 c 1
 340 481 l 1
 306 415 l 1
EndSplineSet
EndChar

StartChar: yhy.cas
Encoding: 67 -1 109
Width: 243
Flags: W
HStem: -6 44<18.136 93.0582 163.719 228.991>
VStem: 94 67<39.1511 336.573>
AnchorPoint: "Top" 152 619 basechar 0
AnchorPoint: "Bottom" 119 0 basechar 0
LayerCount: 2
Fore
SplineSet
94 121 m 2
 94 237 95 295 95 314 c 0
 95 330 91 329 27 355 c 0
 22 357 15 360 15 368 c 0
 15 380 31 384 42 389 c 0
 146 439 147 441 152 441 c 2
 153 441 l 2
 159 441 167 437 167 425 c 0
 167 417 161 320 161 198 c 2
 161 165 l 2
 161 43 162 40 184 37 c 0
 217 32 229 33 229 16 c 0
 229 8 228 -6 217 -6 c 0
 214 -6 174 0 125 0 c 0
 75 0 36 -6 33 -6 c 0
 23 -6 18 1 18 11 c 0
 18 34 22 32 67 38 c 0
 92 42 94 56 94 74 c 2
 94 121 l 2
EndSplineSet
EndChar

StartChar: NameMe.86
Encoding: 86 -1 110
Width: 514
Flags: W
HStem: -14 21G<381 389> 0 42<21.8484 81.4511 161.556 245.592> 382 33<288.004 347.538> 399 20G<418.5 432>
VStem: 87 71<44.8242 609.081> 373 67<68.8911 162.038 209.64 363.62>
AnchorPoint: "Top" 400.222 618 basechar 0
AnchorPoint: "Bottom" 264 0 basechar 0
LayerCount: 2
Fore
SplineSet
195 42 m 3x4c
 288 42 369 240.895507812 369 260 c 2
 369 346 l 2
 369 346 354 373 303 382 c 0
 293 384 288 388 288 398 c 0
 288 411 294 414 302 415 c 0x6c
 400 418 412 419 425 419 c 0
 439 419 440 409 440 399 c 2
 440 86 l 2
 440 74 446 77 490 56 c 0
 497 53 498 50 498 44 c 0
 498 14 484 37 398 -10 c 0
 395 -12 391 -14 387 -14 c 0x9c
 375 -14 373 3.04251781338 373 6 c 2
 373 158 l 2
 373 162 370.551607254 162.834083964 370 162 c 0
 349.01171875 130.263671875 298 0 158.102539062 0 c 0
 158.102539062 0 176 0 127 0 c 0
 76 0 36 -6 33 -6 c 0
 21 -6 21 5 21 14 c 0
 21 31 30 30 58 36 c 0
 81 40 81 56 82 70 c 0
 85 161 87 253 87 345 c 2
 87 349 l 2
 87 430 84 588 83 594 c 0
 78 619 12 610 12 636 c 0
 12 648 26 654 28 655 c 0
 135 717 136 719 143 719 c 2
 144 719 l 2
 150 719 159.051947504 715.999831339 159 700 c 2
 158 392 l 0
 158 386 159 62 159 62 c 1
 158.999998713 48.2929042327 186.055664062 42 195 42 c 3x4c
293 408 m 1026
394 416 m 1024
EndSplineSet
EndChar
